STARTFONT 2.1
FONT -FontForge-Untitled1-Regular-R-Normal--50-480-75-75-M-500-ISO8859-1
SIZE 48 75 75
FONTBOUNDINGBOX 50 57 1 -11
COMMENT "Generated by fontforge, http://fontforge.sourceforge.net"
COMMENT "Copyright (c) 2022, Kev0"
STARTPROPERTIES 29
FOUNDRY "FontForge"
FAMILY_NAME "Untitled1"
WEIGHT_NAME "Regular"
SLANT "R"
SETWIDTH_NAME "Normal"
ADD_STYLE_NAME ""
PIXEL_SIZE 50
POINT_SIZE 480
RESOLUTION_X 75
RESOLUTION_Y 75
SPACING "M"
AVERAGE_WIDTH 500
CHARSET_REGISTRY "ISO8859"
CHARSET_ENCODING "1"
FONTNAME_REGISTRY ""
CHARSET_COLLECTIONS "ISOLatin1Encoding"
FONT_NAME "Untitled1"
FACE_NAME "Untitled1"
COPYRIGHT "Copyright (c) 2022, Kev0"
FONT_VERSION "001.000"
FONT_ASCENT 40
FONT_DESCENT 10
UNDERLINE_POSITION -5
UNDERLINE_THICKNESS 3
X_HEIGHT 35
RAW_ASCENT 800
RAW_DESCENT 200
FIGURE_WIDTH 50
AVG_LOWERCASE_WIDTH 500
ENDPROPERTIES
CHARS 256
STARTCHAR uni0000
ENCODING 0
SWIDTH 1020 0
DWIDTH 51 0
BBX 1 1 25 0
BITMAP
00
ENDCHAR
STARTCHAR uni0001
ENCODING 1
SWIDTH 1020 0
DWIDTH 51 0
BBX 1 1 25 0
BITMAP
00
ENDCHAR
STARTCHAR uni0002
ENCODING 2
SWIDTH 1020 0
DWIDTH 51 0
BBX 1 1 25 0
BITMAP
00
ENDCHAR
STARTCHAR uni0003
ENCODING 3
SWIDTH 1020 0
DWIDTH 51 0
BBX 1 1 25 0
BITMAP
00
ENDCHAR
STARTCHAR uni0004
ENCODING 4
SWIDTH 1020 0
DWIDTH 51 0
BBX 1 1 25 0
BITMAP
00
ENDCHAR
STARTCHAR uni0005
ENCODING 5
SWIDTH 1020 0
DWIDTH 51 0
BBX 1 1 25 0
BITMAP
00
ENDCHAR
STARTCHAR uni0006
ENCODING 6
SWIDTH 1020 0
DWIDTH 51 0
BBX 1 1 25 0
BITMAP
00
ENDCHAR
STARTCHAR uni0007
ENCODING 7
SWIDTH 1020 0
DWIDTH 51 0
BBX 1 1 25 0
BITMAP
00
ENDCHAR
STARTCHAR uni0008
ENCODING 8
SWIDTH 1020 0
DWIDTH 51 0
BBX 1 1 25 0
BITMAP
00
ENDCHAR
STARTCHAR uni0009
ENCODING 9
SWIDTH 1020 0
DWIDTH 51 0
BBX 1 1 25 0
BITMAP
00
ENDCHAR
STARTCHAR uni000A
ENCODING 10
SWIDTH 1020 0
DWIDTH 51 0
BBX 1 1 25 0
BITMAP
00
ENDCHAR
STARTCHAR uni000B
ENCODING 11
SWIDTH 1020 0
DWIDTH 51 0
BBX 1 1 25 0
BITMAP
00
ENDCHAR
STARTCHAR uni000C
ENCODING 12
SWIDTH 1020 0
DWIDTH 51 0
BBX 1 1 25 0
BITMAP
00
ENDCHAR
STARTCHAR uni000D
ENCODING 13
SWIDTH 1020 0
DWIDTH 51 0
BBX 1 1 25 0
BITMAP
00
ENDCHAR
STARTCHAR uni000E
ENCODING 14
SWIDTH 1020 0
DWIDTH 51 0
BBX 1 1 25 0
BITMAP
00
ENDCHAR
STARTCHAR uni000F
ENCODING 15
SWIDTH 1020 0
DWIDTH 51 0
BBX 1 1 25 0
BITMAP
00
ENDCHAR
STARTCHAR uni0010
ENCODING 16
SWIDTH 1020 0
DWIDTH 51 0
BBX 1 1 25 0
BITMAP
00
ENDCHAR
STARTCHAR uni0011
ENCODING 17
SWIDTH 1020 0
DWIDTH 51 0
BBX 1 1 25 0
BITMAP
00
ENDCHAR
STARTCHAR uni0012
ENCODING 18
SWIDTH 1020 0
DWIDTH 51 0
BBX 1 1 25 0
BITMAP
00
ENDCHAR
STARTCHAR uni0013
ENCODING 19
SWIDTH 1020 0
DWIDTH 51 0
BBX 1 1 25 0
BITMAP
00
ENDCHAR
STARTCHAR uni0014
ENCODING 20
SWIDTH 1020 0
DWIDTH 51 0
BBX 1 1 25 0
BITMAP
00
ENDCHAR
STARTCHAR uni0015
ENCODING 21
SWIDTH 1020 0
DWIDTH 51 0
BBX 1 1 25 0
BITMAP
00
ENDCHAR
STARTCHAR uni0016
ENCODING 22
SWIDTH 1020 0
DWIDTH 51 0
BBX 1 1 25 0
BITMAP
00
ENDCHAR
STARTCHAR uni0017
ENCODING 23
SWIDTH 1020 0
DWIDTH 51 0
BBX 1 1 25 0
BITMAP
00
ENDCHAR
STARTCHAR uni0018
ENCODING 24
SWIDTH 1020 0
DWIDTH 51 0
BBX 1 1 25 0
BITMAP
00
ENDCHAR
STARTCHAR uni0019
ENCODING 25
SWIDTH 1020 0
DWIDTH 51 0
BBX 1 1 25 0
BITMAP
00
ENDCHAR
STARTCHAR uni001A
ENCODING 26
SWIDTH 1020 0
DWIDTH 51 0
BBX 1 1 25 0
BITMAP
00
ENDCHAR
STARTCHAR uni001B
ENCODING 27
SWIDTH 1020 0
DWIDTH 51 0
BBX 1 1 25 0
BITMAP
00
ENDCHAR
STARTCHAR uni001C
ENCODING 28
SWIDTH 1020 0
DWIDTH 51 0
BBX 1 1 25 0
BITMAP
00
ENDCHAR
STARTCHAR uni001D
ENCODING 29
SWIDTH 1020 0
DWIDTH 51 0
BBX 1 1 25 0
BITMAP
00
ENDCHAR
STARTCHAR uni001E
ENCODING 30
SWIDTH 1020 0
DWIDTH 51 0
BBX 1 1 25 0
BITMAP
00
ENDCHAR
STARTCHAR uni001F
ENCODING 31
SWIDTH 1020 0
DWIDTH 51 0
BBX 1 1 25 0
BITMAP
00
ENDCHAR
STARTCHAR space
ENCODING 32
SWIDTH 1020 0
DWIDTH 51 0
BBX 1 1 25 0
BITMAP
00
ENDCHAR
STARTCHAR exclam
ENCODING 33
SWIDTH 1020 0
DWIDTH 51 0
BBX 46 45 3 -4
BITMAP
000038000000
0000F8000000
0003F8000000
0007FC000000
0007FC000400
0003FE000F00
0203FE000FC0
0703FE001FF0
1F81FF001FFC
3F81FF003FF8
FFC0FF003FF8
7FC0FF807FF8
7FE0FF807FF0
3FF07F80FFF0
1FF07FC0FFE0
1FF87FC1FFC0
0FF83F03FFC0
0FFC3C03FF80
07FE2007FF80
03FE0007FF00
03FE000FFE00
01FC001FFE00
01F8001FFC00
00E0003FF800
0040007FF800
0000007FF000
000000FFF000
000001FFE000
000001FFC000
000003FFC000
000007FF8000
000007FF0000
00000FFF0000
00001FFE0000
00001FFC0000
00003FF80000
00007FF80000
0000FFF00000
0000FFE00000
0001FFE00000
0001FFC00000
0000FF800000
00007F800000
00001F000000
00000E000000
ENDCHAR
STARTCHAR quotedbl
ENCODING 34
SWIDTH 1020 0
DWIDTH 51 0
BBX 15 14 18 12
BITMAP
0FE0
1FF0
3FF8
7FFC
7FFC
7FFE
FFFE
FFFE
7FFE
7FFC
7FFC
3FF8
1FF0
07C0
ENDCHAR
STARTCHAR numbersign
ENCODING 35
SWIDTH 1020 0
DWIDTH 51 0
BBX 40 47 6 -1
BITMAP
0000F00000
0001FC0000
0003FC0000
00039E0000
00038E0000
00039E0000
0003FC0000
0001FC0000
0000F00000
0000000000
0000000000
0001FC0000
0001FC0000
00FC7E0000
0003FE0000
0007C1FC00
0007FF0000
0007FF0000
000FFF8000
03F0DF8000
001FDF8000
001F8FC000
001F8FC000
003F0FE000
003F07E000
0078C7E000
007E030FE0
007E030FE0
FF3C01F800
00FC01F800
01E7E1FC00
01F800FC00
03F800FE00
03F0007E00
03F0007E00
1861FFC080
07E1FFC080
0FE0003080
0FC0001F80
1FC0001F80
1F80000FC0
E07FF00FC0
3F0000301F
3F000007E0
7F000007E0
7E000003F0
7E000003F0
ENDCHAR
STARTCHAR dollar
ENCODING 36
SWIDTH 1020 0
DWIDTH 51 0
BBX 31 43 10 -1
BITMAP
000F1F00
000F1F00
000F1F00
000F1F00
00000000
00000000
00000000
0FFFFFFE
0FFFFFFE
0FFF007E
F0FFFFFE
0FFFFFFE
0FFFFFFE
0FC00000
0FC00000
0FC00000
0FC00000
0E3FC000
0FC00000
0FC00000
0FC00000
0FC00000
0FFFFC00
0FFFE200
0FFFFC00
0FFFFC00
0FFFFC00
0FF80C00
0FC7F000
0FC00000
0FC00000
0FC00000
0FC00000
0FCE0000
0FC00000
0FC00000
0FFFFFFE
0FFFFFFE
1007FFFE
0007FFFE
0FFFFFFE
0FFFF00E
0FFFFFFE
ENDCHAR
STARTCHAR percent
ENCODING 37
SWIDTH 1020 0
DWIDTH 51 0
BBX 27 36 12 -1
BITMAP
003F8000
01FFE000
07FFF800
0FFFF1C0
1FFFFF00
387FFF80
3FE07F80
7F803FC0
7F0071C0
FE000FE0
FC0007E0
FC0007E0
E3C007E0
FC0007E0
FE000FC0
7E000FC0
7F00E1C0
3FC07FC0
3FFFFFC0
1FFFFF80
0FFFFF80
07FFFF80
01FFFF80
003FFF00
000038C0
00003F00
000F7F00
00007E00
00007E00
00038600
0000FC00
0000FC00
0000FC00
0000FC00
0001F800
0001F800
ENDCHAR
STARTCHAR ampersand
ENCODING 38
SWIDTH 1020 0
DWIDTH 51 0
BBX 31 45 10 -8
BITMAP
007F8000
1F807F00
1FFFFFC0
1FFFFFE0
1FFFFFF0
1FFFFFF8
1FFFFFFC
1F8003FC
1F8000FC
1F8000FE
1F80007E
1F80007E
E060007E
1F80007E
1F80030E
1F8001FC
1F87FFFC
1F87FFF8
1F87FFF0
1F87FFF0
1F87FFF8
1F87FFFC
1F8003FC
1F8000FC
1F8000FE
1F80007E
1F80007E
1E7C007E
1F80007E
1F800706
1F8001FC
1F87FFFC
1F87FFF8
1F87FFF0
1F87FFE0
1F87FFC0
1F87FF00
1F800000
1F800000
1F800000
1C7C0000
1F800000
1F800000
1F800000
1F800000
ENDCHAR
STARTCHAR quotesingle
ENCODING 39
SWIDTH 1020 0
DWIDTH 51 0
BBX 49 49 1 -5
BITMAP
03C0000001E000
07C0000001F000
0780000000F000
0F80000000F800
0F000000007800
1F000000007C00
1F000000003C00
1E000000003E00
3E0FFFFFFC3E00
3E0FFFFFFC3E00
3E0FFFFFFC1E00
3C0FFFFFFC1F00
7C0FFFFFFC1F00
7C0FFFFFFC1F00
7C0FFFFFFC1F00
7C000000001F00
7C000000000F00
7C000000000F80
78000000000F80
F8000000000F80
F8000000000F80
F803FFFFE00F80
F803FFFFE00F80
F803FFFFE00F80
F803FFFFE00F80
F803FFFFE00F80
F803FFFFE00F80
F803FFFFE00F80
F8000000000F80
F8000000000F80
FC000000000F80
7C000000000F80
7C000000001F00
7C000000001F00
7C000000001F00
7C3FFFFFFF1F00
7C3FFFFFFF1F00
3C3FFFFFFF1F00
3E3FFFFFFF1E00
3E3FFFFFFF3E00
3E3FFFFFFF3E00
1E3FFFFFFF3E00
1F000000003C00
1F000000007C00
0F000000007800
0F80000000F800
0780000000F000
07C0000001F000
03C0000001E000
ENDCHAR
STARTCHAR parenleft
ENCODING 40
SWIDTH 1020 0
DWIDTH 51 0
BBX 45 47 3 -5
BITMAP
FFFFFFFFFFF8
FFFFFFFFFFF8
FFFFFFFFFFF8
FFFFFFFFFFF8
FFFFFFFFFFF8
FFFFFFFFFFF8
FFFFFFFFFFF8
FFFFFFFFFFF8
FF00000007F8
FF00000007F8
FF00000007F8
FF00000007F8
FF00000007F8
FF0FFFFF87F8
FF0FFFFF87F8
FF0FFFFF87F8
FF0FFFFF87F8
FF0FFFFF87F8
FF0FFFFF87F8
FF0FE03F87F8
FF0FE03F87F8
FF0FE03F87F8
FF0FE03F87F8
FF0FE03F87F8
FF0FE03F87F8
FF0FE03F87F8
FF0FFFFF87F8
FF0FFFFF87F8
FF0FFFFF87F8
FF0FFFFF87F8
FF0FFFFF87F8
FF0FFFFF87F8
FF00000007F8
FF00000007F8
FF00000007F8
FF00000007F8
FF00000007F8
FFFFFFFFFFF8
FFFFFFFFFFF8
FFFFFFFFFFF8
FFFFFFFFFFF8
FFFFFFFFFFF8
FFFFFFFFFFF8
FFFFFFFFFFF8
FF00000007F8
FF00000007F8
FF00000007F8
ENDCHAR
STARTCHAR parenright
ENCODING 41
SWIDTH 1020 0
DWIDTH 51 0
BBX 43 45 4 -4
BITMAP
FFFFFFFFF800
FFFFFFFFF800
FFFFFFFFF800
FFFFFFFFF800
FFFFFFFFF800
FFFFFFFFF800
FFFFFFFFF800
FFFFFFFFF800
00000007F800
00000007F800
00000007F800
00000007F800
00000007F800
00000007F800
00000007F800
00000007F800
00000007F800
FFFFFFFFF800
FFFFFFFFF800
FFFFFFFFF800
FFFFFFFFF800
FFFFFFFFF800
FFFFFFFFF800
FFFFFFFFF800
FF000007F800
FF000007F800
FF000007F800
FF0000000000
FF0000000000
FF0000000000
FF0000001800
FF0000001F00
FF0000001FE0
FF0000001FC0
FF0000003FC0
FF0000003FC0
FF0000007FC0
FFF80007FFC0
7FFFFFFFFF80
7FFFFFFFFF80
7FFFFFFFFF00
3FFFFFFFFF00
1FFFFFFFFE00
0FFFFFFFFC00
01FFFFFFC000
ENDCHAR
STARTCHAR asterisk
ENCODING 42
SWIDTH 1020 0
DWIDTH 51 0
BBX 49 48 1 -5
BITMAP
00040000300000
000F8000780000
000FF001FC0000
001FF803FE0000
003FF807FF0000
007FF003FF8000
007FE001FFC000
00FFE000FFE000
01FFC0007FF000
03FF80003FF800
07FF00001FFC00
1FFE00000FFE00
3FFE000007FF00
7FFC000007FF80
FFF8000203FF00
3FF0E003E1FE00
1FEFE003FCFC00
0FDFF007FE7000
078FF007FC6000
020FF807FC0000
0007F80FF80000
0007FC0FF80000
0007FC1FF00000
0003FE3FF00000
0003FE3FE00000
0001FF7FE00000
0001FFFFC00000
0000FFFFC00000
00007FFF800000
00007FFF000000
00003FFF000000
00001FFE000000
00003FFE000000
00007FFF000000
0000FFFFC00000
0003FFFFF00000
000FFFFFFC0000
003FFFFFFF0000
00FFFF7FFFE000
07FFFE3FFFFC00
7FFFF81FFFFF80
FFFFF007FFFF00
7FFFC003FFFE00
3FFF0000FFFE00
1FFC00003FFC00
0FF0000007F800
0FC0000001F800
06000000001000
ENDCHAR
STARTCHAR plus
ENCODING 43
SWIDTH 1020 0
DWIDTH 51 0
BBX 48 48 2 -4
BITMAP
00001FF00000
00001FF03000
00001FF07800
00001FF0FE00
00001FF1FF00
00001FF3FFC0
00001FF0FFE0
00001FF07FF0
00001FE03FF8
00001FE01FF0
00001FE00FE0
00001FE007C0
00001FE00300
00001FE00000
FFFFFFFFFFFE
FFFFFFFFFFFE
FFFFFFFFFFFE
FFFFFFFFFFFE
FFFFFFFFFFFE
FFFFFFFFFFFE
FFFFFFFFFFFE
FFFFFFFFFFFE
00007FF80000
00007FFC0000
00007FFC0000
0000FFFE0000
0000FFFE0000
0001FFFF0000
0001FFFF8000
0003FFFF8000
0003FE7FC000
0007FE7FE000
000FFC3FF000
001FFC3FF800
003FF81FFC00
007FF80FFE00
00FFF00FFF00
01FFE007FF80
03FFC003FFE0
0FFF8001FFF0
3FFF8000FFFC
FFFF00007FFF
FFFC00003FFE
7FF800001FFE
3FF000000FFC
1FE0000003F8
0F80000001F0
060000000070
ENDCHAR
STARTCHAR comma
ENCODING 44
SWIDTH 1020 0
DWIDTH 51 0
BBX 49 49 1 -5
BITMAP
000007F8000000
000007F8000000
000007F8020000
00E007F803C000
07F007F807F000
1FF007F807FE00
0FF807F80FFC00
07FC07F80FF800
07FC07F81FF800
03FE07F81FF000
01FE07F83FF000
01FF07F83FE000
00FF07F87FC000
00FF87F87FC000
00FF07F8FF8000
007C07F87F0000
006007F81E0000
000007F8020000
000007F8000000
7FFFFFFFFFFF00
7FFFFFFFFFFF00
7FFFFFFFFFFF00
7FFFFFFFFFFF00
7FFFFFFFFFFF00
7FFFFFFFFFFF00
7FFFFFFFFFFF00
7FFFFFFFFFFF00
0001FFFFC00000
0003FFFFE00000
0003FFFFF00000
0007FFFFF80000
000FFFFFFC0000
001FF7FFFE0000
003FF7FBFF0000
007FE7F9FF8000
00FFC7F9FFC000
01FF87F8FFE000
07FF07F87FF000
0FFF07F83FFC00
1FFE07F81FFE00
7FFC07F80FFF80
FFF807F807FF80
7FF007F803FF00
3FE007F801FE00
1F8007F800FC00
0F0007F8007800
060007F8003000
040007F8000000
000007F8000000
ENDCHAR
STARTCHAR hyphen
ENCODING 45
SWIDTH 1020 0
DWIDTH 51 0
BBX 47 49 2 -5
BITMAP
001FC007F000
001FC007F000
001FC007F000
001FC007F000
FFFFFFFFFFFE
FFFFFFFFFFFE
FFFFFFFFFFFE
FFFFFFFFFFFE
FFFFFFFFFFFE
FFFFFFFFFFFE
FFFFFFFFFFFE
001FC007F000
001FC007F000
001FC007F000
001FDFE7F000
001FDFE7F000
00001FE00000
00001FE00000
00001FE00000
1FFFFFFFFFF0
1FFFFFFFFFF0
1FFFFFFFFFF0
1FFFFFFFFFF0
1FFFFFFFFFF0
1FFFFFFFFFF0
1FFFFFFFFFF0
1FE01FE00FF0
1FE01FE00FF0
1FE01FE00FF0
1FE01FE00FF0
1FE01FE00FF0
1FE01FE00FF0
1FE01FE00FF0
1FE01FE00FF0
1FE01FE00FF0
1FE01FE00FF0
1FE01FE3FFF0
1FE01FE1FFF0
1FE01FE1FFF0
1FE01FE1FFE0
1FE01FE0FFE0
1FE01FE0FFC0
1FE01FE0FE00
00001FE00000
00001FE00000
00001FE00000
00001FE00000
00001FE00000
00001FE00000
ENDCHAR
STARTCHAR period
ENCODING 46
SWIDTH 1020 0
DWIDTH 51 0
BBX 21 44 15 -3
BITMAP
000400
000700
0007C0
0007E0
0007F0
0007F0
000FE0
000FE0
000FE0
000FE0
020FE0
070FE0
078FC0
07DFC0
0FFFC0
0FFFC0
1FFFC0
1FFF80
0FFF80
07FF80
03FF80
01FF80
00FF80
00FFC0
00FFC0
00FFE0
01FFF0
01FFF0
03FFF8
03FFF8
07FBF0
07FBF0
0FF1E0
1FF0E0
3FE0E0
3FE040
7FC040
FFC000
FF8000
7F0000
7F0000
3E0000
1C0000
180000
ENDCHAR
STARTCHAR slash
ENCODING 47
SWIDTH 1020 0
DWIDTH 51 0
BBX 40 47 6 -5
BITMAP
0000000040
00000000F0
00000000F8
00000001FE
00000003FF
00000007FF
00000007FE
0000000FFC
0008001FFC
001C003FF8
003F007FF0
007F807FE0
00FFE0FFC0
01FFF1FF80
01FFFFFF80
01FFFFFF00
007FFFFE00
001FFFFC00
000FFFF800
0003FFF800
0001FFFE00
00007FFF00
0000FFFF80
0001FFFFE0
0001FFFFF0
0003FFFFF8
0F07FFFFFE
FF0FFE7FFF
FF0FFC3FFE
7F1FF81FFC
7F3FF007F8
7F7FF003F8
7FFFE001F0
7FFFC000E0
7FFF800040
7FFF800000
7FFF000000
7FFE000000
7FFC000000
7FFC000000
7FF8000000
7FF0000000
7FF0000000
7FE0000000
7FC0000000
0FC0000000
0180000000
ENDCHAR
STARTCHAR zero
ENCODING 48
SWIDTH 1020 0
DWIDTH 51 0
BBX 36 36 8 -1
BITMAP
0003FC0000
001FFF8000
007FFFC000
00FFFFF000
01FFFFF800
03FFFFFC00
07FE07FE00
0FF803FF00
E0F00F0F00
1FE0007F80
3FC0003C70
3F80001FC0
3F00001FC0
7F00000FC0
7E00000FC0
7E000007E0
71FF8007E0
7E000007E0
7E000007E0
7E000007E0
7E000007E0
7E000007E0
7E00FE0FC0
7F00000FC0
3F00001FC0
3F80001F80
1FC0003F80
1C1F807F00
0FF801FF00
07FE07FE00
03FFFE0300
01FFFFF800
00FFFFF000
00787FE000
001FFF8000
0003FC0000
ENDCHAR
STARTCHAR one
ENCODING 49
SWIDTH 1020 0
DWIDTH 51 0
BBX 38 44 7 -4
BITMAP
0000E00000
0003F00000
0003F80000
0003FC0000
0007FC0000
0003FE0000
0003FE0000
0001FF0000
0001FF8000
0000FF8000
00007FC000
00007FC000
00003FE000
00003FF000
00001FF800
1FFFFFFC00
3FFFFFFC00
3FFFFFFE00
3FFFFFFE00
3FFFFFFE00
3FFFFFFFFC
1FFFFFFFFC
7FFFFFFFFC
FFFFFFFFFC
FFFFFFFFFC
FFFFFFFFFC
FFFFFFFFFC
FFFFFFFFFC
7FFFFFFFFC
7FFFFFFFFC
FFFFFFFFFC
FFFFFFFFFC
FFFFFFFFFC
FFFFFFFFFC
FFFFFFFFFC
FFFFFFFFFC
3FFFFFFFFC
1FFFFFFFFC
3FFFFFFFFC
3FFFFFFFFC
3FFFFFFC00
3FFFFFF800
3FFFFFF000
1FFFFFE000
ENDCHAR
STARTCHAR two
ENCODING 50
SWIDTH 1020 0
DWIDTH 51 0
BBX 38 47 7 -6
BITMAP
0010002000
0038007000
007C00F800
007C00F800
00FE01FC00
01FF03FE00
03FF03FF00
03FFFFFF00
07FFFFFF80
07FFFFFF80
0FFFFFFFC0
0FFFFFFFC0
1FFFFFFFE0
1FFFFFFFE0
3FFFFFFFF0
3FFFFFFFF0
3FFFFFFFF0
7FFFFFFFF8
7FFFFFFFF8
7FFFFFFFF8
FFFFFFFFFC
FFFFFFFFFC
FFFFFFFFFC
FF07FFC1FC
FE03FF01FC
FE01FF01FC
FE01FE01FC
FE00FE01FC
FE00FE01FC
FF00FE03FC
FF81FE03FC
FFE3FF1FFC
FFFFFFFFFC
7FFFFFFFF8
7FFFFFFFF8
3FFFFFFFF0
3FFFFFFFF0
1FFFFFFFE0
0FFFFFFFC0
0FFFFFFFC0
07FFFFFF80
03FFFFFF00
01FFFFFE00
00FFFFF800
003FFFF000
000FFFC000
0001FC0000
ENDCHAR
STARTCHAR three
ENCODING 51
SWIDTH 1020 0
DWIDTH 51 0
BBX 38 32 7 1
BITMAP
FFFFFFFFC0
FFFFFFFFF0
FFFFFFFFF8
FFFFFFF8F8
FFFFFFF83C
FFFFFFF83C
FFFFFFF81C
FFFFFFF81C
FFFFFFF81C
FFFFFFF81C
FFFFFFF81C
FFFFFFF81C
FFFFFFF81C
FFFFFFF81C
FFFFFFF81C
FFFFFFF81C
FFFFFFF81C
FFFFFFF81C
FFFFFFF83C
FFFFFFF83C
FFFFFFF8FC
FFFFFFFFF8
FFFFFFFFF8
FFFFFFFFF0
7FFFFFFFC0
7FFFFFE000
3FFFFFC000
1FFFFF8000
0FFFFF0000
07FFFE0000
01FFF80000
003FC00000
ENDCHAR
STARTCHAR four
ENCODING 52
SWIDTH 1020 0
DWIDTH 51 0
BBX 39 40 6 -2
BITMAP
0001FF0000
000FFFE000
003FFFF800
00FFFFFE00
01FFFFFF00
03FFFFFF80
07FFFFFFC0
0FFFFFFFE0
1FFFFFFFF0
1FFFFFFFF0
3FFFFFFFF8
3FFFFFFFF8
7FFFFFFFFC
7FFFFFFFFC
FFFFFFFFFC
FFFF03FFFE
FFFE01FFFE
FFFC00FFFE
FFFC00FFFE
FFF8307FFE
FFF8787FFE
FFF8307FFE
FFFC00FFFE
FFFC00FFFE
FFFE01FFFE
FFFF03FFFC
7FFFFFFFFC
7FFFFFFFFC
3FFFFFFFF8
3FFFFFFFF8
1FFFFFFFF0
1FFFFFFFF0
0FFFFFFFE0
07FFFFFFC0
03FFFFFF80
01FFFFFF00
00FFFFFE00
003FFFF800
000FFFE000
0001FF0000
ENDCHAR
STARTCHAR five
ENCODING 53
SWIDTH 1020 0
DWIDTH 51 0
BBX 43 46 4 -6
BITMAP
600000000080
700000000180
F800000003C0
FC007FE007C0
FE03FFFC0FE0
FF0FFFFF1FE0
FFBFFFFFFFE0
FFFFFFFFFFE0
FFFFFFFFFFE0
FFFFFFFFFFE0
FFFFFFFFFFE0
7FFFFFFFFFC0
7FFFFFFFFFC0
3FFFFFFFFF80
1FFFFFFFFF80
3FFFFFFFFF80
3FDFFFFF7FC0
3E03FFF80FC0
7800FFE003E0
70007FC001E0
70007FC001E0
60003F8000E0
60003F8000E0
60003F8000E0
60003F8000E0
60003F8000E0
60003F8000E0
60003F8001E0
70007FC001E0
7800FFE003E0
3C01FFF007C0
3F07FFFC1FC0
3FFFFFFFFFC0
1FFFFFFFFF80
1FFFFFFFFF80
0FFFFFFFFF00
0FFFFFFFFE00
07FFFFFFFE00
03FFFFFFFC00
01FFFFFFF800
00FFFFFFF000
007FFFFFE000
001FFFFF8000
0007FFFE0000
0001FFF80000
000006000000
ENDCHAR
STARTCHAR six
ENCODING 54
SWIDTH 1020 0
DWIDTH 51 0
BBX 50 45 1 -5
BITMAP
003F80007F0000
01FFF003FFE000
03FFFC0FFFF000
0FFFFE1FFFFC00
1FFFFF3FFFFE00
3FFFFFFFFFFF00
3FFFFFFFFFFF00
7FFFFFFFFFFF80
7FFFFFFFFFFF80
FFFFFFFFFFFF80
FFFFFFFFFFFFC0
FFFFFFFFFFFFC0
FFFFFFFFFFFFC0
FFFFFFFFFFFFC0
FFFFFFFFFFFFC0
FFFFFFFFFFFFC0
FFFFFFFFFFFF80
7FFFFFFFFFFF80
7FFFFFFFFFFF80
3FFFFFFFFFFF00
3FFFFFFFFFFF00
1FFFFFFFFFFE00
0FFFFFFFFFFC00
07FFFFFFFFF800
03FFFFFFFFF000
01FFFFFFFFE000
00FFFFFFFFC000
007FFFFFFF8000
003FFFFFFF0000
003FFFFFFF0000
001FFFFFFE0000
000FFFFFFC0000
0007FFFFF80000
0003FFFFF00000
0001FFFFE00000
0000FFFFC00000
0000FFFFC00000
00007FFF800000
00003FFF000000
00001FFE000000
00000FFC000000
000007F8000000
000003F0000000
000001F0000000
000001E0000000
ENDCHAR
STARTCHAR seven
ENCODING 55
SWIDTH 1020 0
DWIDTH 51 0
BBX 45 48 3 -7
BITMAP
03C000001E00
07E000003F00
07E000003F00
3FE000003FE0
7FE000003FF0
FFC000001FF8
FFE000003FF8
FFF03FC07FF0
7FF8FFF8FFF0
03FBFFFDFE00
01FFFFFFFC00
00FFFFFFF800
007FFFFFF000
007FFFFFE000
007FFFFFE000
00FFFFFFF000
00FFFFFFF000
01FFFFFFF000
01FFFFFFF800
01FFFFFFF800
01FE3FC7F800
01FC1F83F800
01F81F03F800
01F80F01F800
01F80F03F800
01FC1F83F800
01FE3FC7F000
00FFFFFFF000
00FFFFFFF000
007FFFFFE000
003FFFFFC000
003FFFFFC000
001FFFFF8000
001FFFFFC000
003FFFFFE000
007FFFFFF000
00FFFFFBF800
01FFFFF3FC00
03FCFFE1FC00
3FF80600FEE0
7FF000007FF0
FFE000003FF8
FFC000001FF8
7FE000003FF0
3FE000003FE0
07E000003F00
07E000003F00
03C000001E00
ENDCHAR
STARTCHAR eight
ENCODING 56
SWIDTH 1020 0
DWIDTH 51 0
BBX 42 47 5 -6
BITMAP
00007F800000
0003FFF00000
000FFFFC0000
003FFFFF0000
007FFFFF8000
00FFFFFFC000
01FFFFFFE000
03FFFFFFF000
07FFFFFFF800
0FFFFFFFFC00
0FFFFFFFFC00
1FFFFFFFFE00
1FFFFFFFFE00
3FFFFFFFFF00
3FFFFFFFFF00
7FFFFFFFFF80
7FFFFFFFFF80
7FFFFFFFFF80
7FFFFFFFFF80
FFFFFFFFFF80
FFFFFFFFFFC0
FF0000003FC0
FF0000003FC0
FE0000001FC0
FF0000003FC0
FF8000007FC0
FFFFFFFFFFC0
FFFFFFFFFFC0
7FFFFFFFFF80
7FFFFFFFFF80
7FFFFFFFFF80
7FFFFFFFFF80
3FFFFFFFFF00
3FFFFFFFFF00
3FFFFFFFFF00
1FFFFFFFFE00
1FFF003FFC00
0FFF003FFC00
07FFFFFFF800
07FFFFFFF000
03FFFFFFF000
01FFFFFFE000
00FFFFFFC000
003FFFFF0000
001FFFFE0000
0007FFF80000
0001FFC00000
ENDCHAR
STARTCHAR nine
ENCODING 57
SWIDTH 1020 0
DWIDTH 51 0
BBX 38 40 7 -3
BITMAP
0001FE0000
000FFFC000
007FFFF800
00FFFFFC00
01FFFFFE00
03FFFFFF00
07FFFFFFC0
0FFFFFFFE0
3FFFFFFFF0
7FFF01FFF8
FFFF01FFFC
FFFF01FFFC
FFFF01FFFC
FFFF01FFFC
FFFF01FFFC
FFFFFFFFFC
FFFFFFFFFC
FFFFFFFFFC
FFFFFFFFFC
FFFFFFFFFC
FFFFFFFFFC
FFFFFFFFFC
FFFFFFFFFC
FFFFFFFFFC
FFFFFFFFFC
FFFFFFFFFC
FFFFFFFFFC
FFFFFFFFFC
FFFFFFFFFC
FFFFFFFFFC
FFF8007FFC
FFF8007FFC
FFF8007FFC
FFF8007FFC
FFF8007FFC
FFF8007FFC
FFF8007FFC
FFF8007FFC
FFF8007FFC
FFF8007FFC
ENDCHAR
STARTCHAR colon
ENCODING 58
SWIDTH 1020 0
DWIDTH 51 0
BBX 25 38 13 -1
BITMAP
007F0000
01FFE000
0700F000
0FFFFC00
1FFFFE00
3FFFFE00
3FE3E700
7F830700
7F007F80
61C01F80
FC001F80
FC001F80
00001F80
00006080
00001F80
00001F80
00003F80
00007F80
0003FF00
007FFF00
007F8E00
007F8300
007FF800
018FF000
007FC000
007E0000
007E0000
00718000
007E0000
00000000
00000000
00000000
007E0000
007E0000
007E0000
007E0000
007E0000
007E0000
ENDCHAR
STARTCHAR semicolon
ENCODING 59
SWIDTH 1020 0
DWIDTH 51 0
BBX 35 37 8 0
BITMAP
FFFFFFFFE0
FFFFFFFFE0
FFFFFFFFE0
FFFFFFFFE0
FFFFFFFFE0
FFFFFFFFE0
0000000000
0000000000
0000000000
0000000000
0000000000
0000000000
FFFFFFFFE0
FFFFFFFFE0
FFFFFFFFE0
FFFFFFFFE0
FFFFFFFFE0
FFFFFFFFE0
0003F80000
0003F80000
0003F80000
0003F80000
0003F80000
0003F80000
0003F80000
0003F80000
0003F80000
0003F80000
0003F80000
0003F80000
0003F80000
0003F80000
0003F80000
0003F80000
0003F80000
0003F80000
0003F80000
ENDCHAR
STARTCHAR less
ENCODING 60
SWIDTH 1020 0
DWIDTH 51 0
BBX 47 37 2 0
BITMAP
03FFFFFFFFC0
03FFFFFFFFC0
03FFFFFFFFC0
03FFFFFFFFC0
000000000000
000000000000
000000000000
000000000000
03FFFFFFFFC0
03FFFFFFFFC0
03FFFFFFFFC0
03FFFFFFFFC0
000007C00000
180007C00030
7C4807C0247C
644B07C0A40C
C03E07C0FC06
C1FFC7C6FF06
C0C307C18606
C0C187C10606
C0C187C10606
40E307C18606
707F07C0FC0C
3C3C07C07878
0C0007C00060
040000000040
06060000C0C0
0203000180C0
030180038180
0181C0070300
00C0701E0700
00E03FF80E00
003801803C00
001E0000F000
0007C007C000
0001FFFF0000
00000FE00000
ENDCHAR
STARTCHAR equal
ENCODING 61
SWIDTH 1020 0
DWIDTH 51 0
BBX 32 35 10 -1
BITMAP
00007E00
00007E00
00007E00
00079E00
0600FC00
1FC0FC00
3E18FC00
7FE0FC00
7FF1F800
7DF1F800
F8F9F800
F8F90FC0
F8FBF000
F91BF000
7DF3F000
7FF3E000
7FE7E1F0
3FE7E3F8
1FC7E7FC
0007EFFE
000FCFBE
000FDF9E
000FDF1F
000FDF1F
001F9F1F
00E39F1E
001F8FBE
001F8FFE
003F0703
003F07FC
003F03F8
003F0000
0071C000
007E0000
007E0000
ENDCHAR
STARTCHAR greater
ENCODING 62
SWIDTH 1020 0
DWIDTH 51 0
BBX 29 35 11 -1
BITMAP
003F07E0
003F07C0
003F0FC0
003F0FC0
027E0FC0
017E0F80
007E1F80
007E1F80
00FC1870
00FC1F00
3FFFFFF8
3FFFFFF8
3FFFFFF8
C1FFFFF8
3FFFFFF8
3FFFFFF8
03F07E00
03F103F0
03F0FC00
03F0FC00
FFFFFFE0
FFFFFFE0
FFFFFFE0
FFFFFFE0
FFFFFFE0
FFFFFFE0
0FC3F000
0FC3F000
2083F000
1F87E000
1F87E000
1F882000
3F07E000
3F0FC000
3F0FC000
ENDCHAR
STARTCHAR question
ENCODING 63
SWIDTH 1020 0
DWIDTH 51 0
BBX 26 35 13 -1
BITMAP
007FF000
01FC0800
03FFF000
07FFF000
0FFFF000
1FF00000
1FC00000
3F800000
3F000000
3F000000
C3007E00
3F007E00
3F819E00
1FE07E00
1FFFFFC0
0FFFFFC0
07FFFFC0
07FFFFC0
0FFFFFC0
1FFFFFC0
1FF07E00
43C07E00
3F807E00
3F007E00
3F007E00
3F1F9E00
3F007E00
3F807E00
1FE07E00
1FFFFE00
0FFFF180
07FFFE00
03FFFE00
00FFFE00
001FFE00
ENDCHAR
STARTCHAR at
ENCODING 64
SWIDTH 1020 0
DWIDTH 51 0
BBX 37 36 7 0
BITMAP
000FFC0000
003FFF8000
00FFFFE000
0E07FFF800
03FFFFFC00
07FFFFFE00
0FFC03FF00
1FF0070700
1FE0007F80
3FC0003FC0
3F81F81FC0
7F07FE0FE0
7E301FCFE0
7E1FFFC718
7E1F0FC7F0
FC3F07C3F0
C33E07C3F0
FC3C03C3F0
FC3C03C3F0
FC3C07C3F0
FC3E07C4F0
7E3F0FC808
7E1FFFC7E0
7E0FFFC7E0
7F07FFCFE0
3F83FFCFC0
387063DFC0
1FE003FF80
0FF003FF80
07FC03FF00
03FFC3FE00
1E1FC3FC00
00FFC3F800
007FC3E000
000FC3C000
0000420000
ENDCHAR
STARTCHAR A
ENCODING 65
SWIDTH 1020 0
DWIDTH 51 0
BBX 29 42 11 -1
BITMAP
FFFFFFF8
FFFFFFF8
FFFFFFF8
FFFFFFF8
FFFFFFF8
FFFFFFF8
FFFFFFF8
FFFFFFF8
FFFFFFF8
FFFFFFF8
FFFFFFF8
FFFFFFF8
7FC00000
3FC00000
1FE00000
0FF00000
07F80000
07FC0000
00000000
00000000
00000000
00000000
00000000
00000000
03FC0000
07F80000
0FF80000
1FF00000
3FE00000
7FC00000
FFFFFFF8
FFFFFFF8
FFFFFFF8
FFFFFFF8
FFFFFFF8
FFFFFFF8
FFFFFFF8
FFFFFFF8
FFFFFFF8
FFFFFFF8
FFFFFFF8
FFFFFFF8
ENDCHAR
STARTCHAR B
ENCODING 66
SWIDTH 1020 0
DWIDTH 51 0
BBX 29 42 11 -1
BITMAP
FFFE0000
FFFF0000
FFFF8000
FFFFC000
FFFFE000
FFFFF000
000FF800
0007FC00
0003FE00
0001FF00
0000FF80
00007FC0
FFFFFFE0
FFFFFFF0
FFFFFFF8
FFFFFFF8
FFFFFFF8
FFFFFFF8
FFFFFFF8
FFFFFFF8
FFFFFFF8
FFFFFFF8
FFFFFFF8
FFFFFFF8
FC007FF8
FC007FF8
FC007FF8
FC007FF8
FC007FF8
FC007FF8
FC007FF8
FC007FF8
FC007FF8
FC007FF8
FC007FF8
FC007FF8
FC007FF8
FC007FF8
FC007FF8
FC007FF8
FC007FF8
FC007FF8
ENDCHAR
STARTCHAR C
ENCODING 67
SWIDTH 1020 0
DWIDTH 51 0
BBX 29 42 11 -1
BITMAP
FFFFFFF8
FFFFFFF8
FFFFFFF8
FFFFFFF8
FFFFFFF8
FFFFFFF8
FFFFFFF8
FFFFFFF8
FFFFFFF8
FFFFFFF8
FFFFFFF8
FFFFFFF8
FFFFFFF8
FFFFFFF8
FFFFFFF8
000001F8
000001F8
000001F8
FFFF81F8
FFFF81F8
FFFF81F8
FFFF81F8
FFFF81F8
FFFF81F8
000001F8
000001F8
000001F8
FFFFFFF8
FFFFFFF8
FFFFFFF8
FFFFFFF8
FFFFFFF8
FFFFFFF8
FFFFFFF8
FFFFFFF8
FFFFFFF8
FFFFFFF8
FFFFFFF8
FFFFFFF8
FFFFFFF8
FFFFFFF8
FFFFFFF8
ENDCHAR
STARTCHAR D
ENCODING 68
SWIDTH 1020 0
DWIDTH 51 0
BBX 29 42 11 -1
BITMAP
FE0FFFF8
FE0FFFF8
FE0FFFF8
FE0FFFF8
FE0FFFF8
FE0FFFF8
FE0FFFF8
FE0FFFF8
FE0FFFF8
FE000000
FE000000
FE000000
FE000000
FE000000
FE000000
FE000000
FE000000
FE000000
FFFFFFF8
FFFFFFF8
FFFFFFF8
FFFFFFF8
FFFFFFF8
FFFFFFF8
FFFFFFF8
FFF00FF8
FFF00FF8
FFF00FF8
FFF00FF8
FFF00FF8
FFFFFFF8
FFFFFFF8
FFFFFFF8
FFFFFFF8
FC018038
FC018038
FC018038
FC018038
FC018038
FFFFFFF8
FFFFFFF8
FFFFFFF8
ENDCHAR
STARTCHAR E
ENCODING 69
SWIDTH 1020 0
DWIDTH 51 0
BBX 29 42 11 -1
BITMAP
000FFFF8
000FFFF8
000FFFF8
000FFFF8
000FFFF8
000FFFF8
000FFFF8
000FFFF8
000FFFF8
000FFFF8
000FFFF8
000FFFF8
000FFFF8
000FFFF8
000FFFF8
000FFFF8
000FFFF8
000E0000
000E0000
000E0000
000E0000
000E0000
000E0000
000E0000
000E03F8
000E03F8
000E03F8
FFFE03F8
FFFE03F8
FFFE03F8
FFFE03F8
FFFE03F8
FFFE03F8
FFFE03F8
FFFE03F8
FFFE03F8
FFFE03F8
FFFE03F8
FFFE03F8
FFFE03F8
FFFE03F8
FFFE03F8
ENDCHAR
STARTCHAR F
ENCODING 70
SWIDTH 1020 0
DWIDTH 51 0
BBX 29 42 11 -1
BITMAP
FFF07FF8
FFF07FF8
FFF07FF8
FFF07FF8
FFF07FF8
FFF07FF8
FFF07FF8
FFF07FF8
FFF07FF8
FFF07FF8
FFF07FF8
FFF07FF8
FFF07FF8
FFF07FF8
FFF07FF8
FFF07FF8
FFF07FF8
FFF07FF8
FFF07FF8
FFF07FF8
FFF07FF8
FFF00000
FFF00000
FFF00000
FFF00000
FFF00000
FFF00000
FFF001F8
FFF001F8
FFF001F8
FFF001F8
FFF001F8
FFF001F8
FFFFFFF8
FFFFFFF8
FFFFFFF8
FFF001F8
FFF001F8
FFF001F8
FFFFFFF8
FFFFFFF8
FFFFFFF8
ENDCHAR
STARTCHAR G
ENCODING 71
SWIDTH 1020 0
DWIDTH 51 0
BBX 29 42 11 -1
BITMAP
FFF3C3F8
FFF3E1F8
FFF3F0F8
FFF3F878
FFF3FC38
FFF3FE18
0003FF08
0003FF80
0003FFC0
0003FFE0
0003FFF0
0003FFF8
0003FFF8
0003FFF8
0003FFF8
0003FFF8
0003FFF8
0003FFF8
FFFFFFF8
FFFFFFF8
FFFFFFF8
FFFFFFF8
FFFFFFF8
FFFFFFF8
FFFFFFF8
FFFFFFF8
FFFFFFF8
FFFFFFF8
FFFFFFF8
FFFFFFF8
FFFFFFF8
FFFFFFF8
FFFFFFF8
0003FFF8
0003FFF8
0003FFF8
0003FFF8
0003FFF8
0003FFF8
0003FFF8
0003FFF8
0003FFF8
ENDCHAR
STARTCHAR H
ENCODING 72
SWIDTH 1020 0
DWIDTH 51 0
BBX 29 42 11 -1
BITMAP
FF800000
FF800000
FF800000
FF800000
FF800000
FF800000
FF8001F8
FF8001F8
FF8001F8
FF8001F8
FF8001F8
FF8001F8
FF8001F8
FF8001F8
FF8001F8
FF8001F8
FF8001F8
FF8001F8
FF800000
FF800000
FF800000
FF807FF8
FF807FF8
FF807FF8
FF807FF8
FF807FF8
FF807FF8
FFFFFFF8
FFFFFFF8
FFFFFFF8
FFFFFFF8
FFFFFFF8
FFFFFFF8
FFFFFFF8
FFFFFFF8
FFFFFFF8
FFFFFFF8
FFFFFFF8
FFFFFFF8
FFFFFFF8
FFFFFFF8
FFFFFFF8
ENDCHAR
STARTCHAR I
ENCODING 73
SWIDTH 1020 0
DWIDTH 51 0
BBX 29 42 11 0
BITMAP
FFC00FC0
FFC00FC0
FFC00FC0
FFC00FC0
FFC00FC0
FFC00FC0
00000FC0
00000FC0
00000FC0
00000FC0
00000FC0
00000FC0
00000FC0
00000FC0
00000FC0
00000FC0
00000FC0
00000FC0
00000FC0
00000FC0
00000FC0
00000FC0
FFFFFFC0
FFFFFFC0
FFFFFFF8
FFFFFFF8
FFFFFFF8
FFFFFFF8
FFFFFFF8
FFFFFFF8
FFFFFFF8
FFFFFFF8
FFFFFFF8
FFFFFFF8
FFFFFFF8
FFFFFFF8
FC0FFFF8
FC0FFFF8
FC0FFFF8
FFFFFFF8
FFFFFFF8
FFFFFFF8
ENDCHAR
STARTCHAR J
ENCODING 74
SWIDTH 1020 0
DWIDTH 51 0
BBX 29 42 11 -1
BITMAP
FFFF83F8
FFFF83F8
FFFF83F8
FFFF83F8
FFFF83F8
FFFF83F8
FFFF83F8
FFFF83F8
FFFF83F8
000003F8
000003F8
000003F8
000003F8
000003F8
000003F8
000003F8
000003F8
000003F8
FFFFFFF8
FFFFFFF8
FFFFFFF8
FFFFFFF8
FFFFFFF8
FFFFFFF8
FFFFFFF8
FF807FF8
FF807FF8
FF807FF8
FF807FF8
FF807FF8
FFFFFFF8
FFFFFFF8
FFFFFFF8
FFFFFFF8
E00E01F8
E00E01F8
E00E01F8
E00E01F8
E00E01F8
FFFFFFF8
FFFFFFF8
FFFFFFF8
ENDCHAR
STARTCHAR K
ENCODING 75
SWIDTH 1020 0
DWIDTH 51 0
BBX 29 42 11 -1
BITMAP
FFFFFFF8
FFFFFFF8
FFFFFFF8
FFFFFFF8
FFFFFFF8
FFFFFFF8
00000000
00000000
00000000
FFFF81F8
FFFF81F8
FFFF81F8
FFFF81F8
FFFF81F8
FFFF81F8
FFFF81F8
FFFF81F8
FFFF81F8
FFFF81F8
FFFF81F8
FFFF81F8
FFFF81F8
FFFF81F8
FFFF81F8
FFFF81F8
FFFF81F8
FFFF81F8
FFFF81F8
FFFF81F8
FFFF81F8
FFFF81F8
FFFF81F8
FFFF81F8
FFFF81F8
FFFF81F8
FFFF81F8
FFFF81F8
FFFF81F8
FFFF81F8
FFFF81F8
FFFF81F8
FFFF81F8
ENDCHAR
STARTCHAR L
ENCODING 76
SWIDTH 1020 0
DWIDTH 51 0
BBX 29 42 11 -1
BITMAP
FFFFFFF8
FFFFFFF8
FFFFFFF8
FFFFFFF8
FFFFFFF8
FFFFFFF8
FFFFFFF8
00000000
00000000
00000000
00000000
00000000
00000000
00000000
00000000
FFF003F8
FFF003F8
FFF003F8
FFF003F8
FFF003F8
FFF003F8
FFF003F8
FFF003F8
FFF003F8
FFF003F8
FFF003F8
FFF003F8
FFF003F8
FFF003F8
FFF003F8
FFF003F8
FFF003F8
FFF003F8
FFF003F8
FFF003F8
FFF003F8
FFF003F8
FFF003F8
FFF003F8
FFF003F8
FFF003F8
FFF003F8
ENDCHAR
STARTCHAR M
ENCODING 77
SWIDTH 1020 0
DWIDTH 51 0
BBX 29 42 11 -1
BITMAP
FC0001F8
FC0001F8
FC0001F8
FC0001F8
FC0001F8
FC0001F8
00000000
00000000
00000000
00000000
00000000
00000000
FC0001F8
FC0001F8
FC0001F8
FC0001F8
FC0001F8
FC0001F8
FFFFFFF8
FFFFFFF8
FFFFFFF8
FFFFFFF8
FFFFFFF8
FFFFFFF8
FFFFFFF8
FFFFFFF8
FFFFFFF8
FFFFFFF8
FFFFFFF8
FFFFFFF8
FFFFFFF8
FFFFFFF8
FFFFFFF8
FFFFFFF8
FFFFFFF8
FC0001F8
FC0001F8
FC0001F8
FC0001F8
FC0001F8
FC0001F8
FC0001F8
ENDCHAR
STARTCHAR N
ENCODING 78
SWIDTH 1020 0
DWIDTH 51 0
BBX 29 42 11 -1
BITMAP
FC0F81F8
FC0F81F8
FC0F81F8
FC0F81F8
FC0F81F8
FC0F81F8
FC0F81F8
FC0F81F8
FC0F81F8
FC0F81F8
FC0F81F8
FC0F81F8
FC0F81F8
FC0F81F8
FC0F81F8
FC0F81F8
FC0F81F8
FC0F81F8
FC0F81F8
FC0F81F8
FC0F81F8
FC0F81F8
FC0F81F8
FC0F81F8
000F8000
000F8000
000F8000
000F8000
000F8000
000F8000
FFFFFFF8
FFFFFFF8
FFFFFFF8
FFFFFFF8
FFFFFFF8
FFFFFFF8
FFFFFFF8
FFFFFFF8
FFFFFFF8
FFFFFFF8
FFFFFFF8
FFFFFFF8
ENDCHAR
STARTCHAR O
ENCODING 79
SWIDTH 1020 0
DWIDTH 51 0
BBX 29 42 11 -1
BITMAP
FFFFFFF8
FFFFFFF8
FFFFFFF8
FFFFFFF8
FFFFFFF8
FFFFFFF8
FFFFFFF8
000001F8
000001F8
000001F8
000001F8
FFFFFFF8
FFFFFFF8
FFFFFFF8
FFFFFFF8
FFFFFFF8
FFFFFFF8
FFFFFFF8
00000000
00000000
00000000
00000000
00000000
00000000
FFFFFFF8
FFFFFFF8
FFFFFFF8
FFFFFFF8
FFFFFFF8
FFFFFFF8
FFFFFFF8
FC000000
FC000000
FC000000
FC000000
FFFFFFF8
FFFFFFF8
FFFFFFF8
FFFFFFF8
FFFFFFF8
FFFFFFF8
FFFFFFF8
ENDCHAR
STARTCHAR P
ENCODING 80
SWIDTH 1020 0
DWIDTH 51 0
BBX 29 42 11 -1
BITMAP
0000FFF8
0000FFF8
0000FFF8
0000FFF8
0000FFF8
0000FFF8
0000FFF8
0000FFF8
0000FFF8
0000FFF8
0000FFF8
0000FFF8
FFFFFFF8
FFFFFFF8
FFFFFFF8
FFFFFFF8
FFFFFFF8
FFFFFFF8
FFFFFFF8
FFFFFFF8
FFFFFFF8
FFF0FFF8
FFF0FFF8
FFF0FFF8
FFF0FFF8
FFF0FFF8
FFF0FFF8
FFF00000
FFF00000
FFF00000
FFF00000
FFF00000
FFF00000
FFFFFE00
FFFFFE00
FFFFFE00
FFFFFE00
FFFFFE00
FFFFFE00
FFFFFE00
FFFFFE00
FFFFFE00
ENDCHAR
STARTCHAR Q
ENCODING 81
SWIDTH 1020 0
DWIDTH 51 0
BBX 29 42 11 -1
BITMAP
FFFFFFF8
FFFFFFF8
FFFFFFF8
FFFFFFF8
FFFFFFF8
FFFFFFF8
FFFFFFF8
FFFFFFF8
FFFFFFF8
00FFFFC0
01FFFF80
01FFFF00
03FFFE00
07FFFE00
07FFFC00
0FFFF800
1FFFF800
3FFFF000
3FFFE000
7FFFC000
FFFFC000
FFFFC000
7FFFC000
3FFFE000
3FFFF000
1FFFF800
0FFFF800
07FFFC00
07FFFE00
03FFFE00
01FFFF00
01FFFF80
00FFFFC0
FFFFFFF8
FFFFFFF8
FFFFFFF8
FFFFFFF8
FFFFFFF8
FFFFFFF8
FFFFFFF8
FFFFFFF8
FFFFFFF8
ENDCHAR
STARTCHAR R
ENCODING 82
SWIDTH 1020 0
DWIDTH 51 0
BBX 29 42 11 -1
BITMAP
000F8000
000F8000
000F8000
000F8000
000F8000
000F8000
00000000
00000000
00000000
00000000
00000000
00000000
000F8000
000F8000
000F8000
000F8000
000F8000
000F8000
001FC000
007FF000
01FFFC00
07FFFF00
1FFFFFC0
7FFFFFF0
FFFFFFF8
FFFFFFF8
FFFFFFF8
FFFFFFF8
FFFFFFF8
FFFFFFF8
FC0001F8
FC0001F8
FC0001F8
FC0001F8
FC0001F8
FC0001F8
FFFFFFF8
FFFFFFF8
FFFFFFF8
FFFFFFF8
FFFFFFF8
FFFFFFF8
ENDCHAR
STARTCHAR S
ENCODING 83
SWIDTH 1020 0
DWIDTH 51 0
BBX 29 42 11 -1
BITMAP
FFF07FF8
FFF07FF8
FFF07FF8
FFF07FF8
FFF07FF8
FFF07FF8
FFF00FC0
FFF00FC0
FFF00FC0
FFF00FC0
FFF00FC0
FFF00FC0
FFFE0FC0
FFFE0FC0
FFFE0FC0
FFFE0FC0
FFFE0FC0
FFFE0FC0
FFFE0FC0
FFFE0FC0
FFFE0FC0
FFFE0FC0
FFFE0FC0
FFFE0FC0
FFFE0FC0
FFFE0FC0
FFFE0FC0
FFFE0FC0
FFFE0FC0
FFFE0FC0
FFF00FC0
FFF00FC0
FFF00FC0
FFF00FC0
FFF00FC0
FFF00FC0
FFF07FF8
FFF07FF8
FFF07FF8
FFF07FF8
FFF07FF8
FFF07FF8
ENDCHAR
STARTCHAR T
ENCODING 84
SWIDTH 1020 0
DWIDTH 51 0
BBX 29 42 11 -1
BITMAP
FFFFE1F8
FFFFE1F8
FFFFE1F8
FFFFE1F8
FFFFE1F8
FFFFE1F8
FFFFE1F8
FFFFE1F8
FFFFE1F8
FFF001F8
FFF001F8
FFF001F8
FFF001F8
FFF001F8
FFF001F8
FFF001F8
FFF001F8
FFF001F8
FFF001F8
FFF001F8
FFF001F8
FFF001F8
FFF001F8
FFF001F8
FFF001F8
FFF001F8
FFF001F8
FFF001F8
FFF001F8
FFF001F8
FFF001F8
FFF001F8
FFF001F8
FFF001F8
FFF001F8
FFF001F8
FFF001F8
FFF001F8
FFF001F8
FFF001F8
FFF001F8
FFF001F8
ENDCHAR
STARTCHAR U
ENCODING 85
SWIDTH 1020 0
DWIDTH 51 0
BBX 29 42 11 -1
BITMAP
FC7E01F8
FC7E01F8
FC7E01F8
FFFFFFF8
FFFFFFF8
FFFFFFF8
FFFFFFF8
FFFFFFF8
FFFFFFF8
FFFFFFF8
FFFFFFF8
FFFFFFF8
007E0000
007E0000
007E0000
00000000
00000000
000001F8
FFFFF1F8
FFFFF1F8
FFFFF1F8
FC01F000
FC01F000
FC01F000
FC0E01F8
FC0E01F8
FC0E01F8
FC0E01F8
FC0E01F8
FC0E01F8
FC0E01F8
FC0E01F8
FC0E01F8
FC0E01F8
FC0E01F8
FC0E01F8
FC0E01F8
FC0E01F8
FC0E01F8
FFFF81F8
FFFF81F8
FFFF81F8
ENDCHAR
STARTCHAR V
ENCODING 86
SWIDTH 1020 0
DWIDTH 51 0
BBX 29 41 11 -1
BITMAP
00007E00
00003F00
00001F80
00020FC0
000707C0
000F83C0
001FC1C0
003FE0C0
007FF040
00FFF800
01FFFC00
03FFFE00
07FFFE00
0FFFFC00
1FFFF800
3FFFF000
7FFFE000
FFFFC000
FFFF8000
FFFF0000
FFFE0000
FFFC0060
FFF800F0
FFF001F8
FFE003F8
FFC007F8
FF800FF8
7FC01FF8
3FE03FF8
1FF07FF8
0FF83FF8
07FC1FF8
03FE0FF8
01FF1FF0
00FFBFE0
007FFFC0
003FFF80
001FFF00
000FFE00
0007FC00
0003F800
ENDCHAR
STARTCHAR W
ENCODING 87
SWIDTH 1020 0
DWIDTH 51 0
BBX 29 42 11 -1
BITMAP
FFFF8FF8
FFFF8FF8
FFFF8FF8
FFFF8FF8
FFFF8FF8
FFFF8FF8
FFFF8000
FFFF8000
FFFF8000
FFFFFFF8
FFFFFFF8
FFFFFFF8
FFFFFFF8
FFFFFFF8
FFFFFFF8
FFFFFFF8
FFFFFFF8
FFFFFFF8
FFFFFFF8
FFFFFFF8
FFFFFFF8
FFFFFFF8
FFFFFFF8
FFFFFFF8
FFFFFFF8
FFFFFFF8
FFFFFFF8
FFFFFFF8
FFFFFFF8
FFFFFFF8
000FFFF8
000FFFF8
000FFFF8
FFFFFFF8
FFFFFFF8
FFFFFFF8
FFFFFFF8
FFFFFFF8
FFFFFFF8
000FFFF8
000FFFF8
000FFFF8
ENDCHAR
STARTCHAR X
ENCODING 88
SWIDTH 1020 0
DWIDTH 51 0
BBX 36 36 8 -1
BITMAP
0003FC0000
001FFF8000
007FFFE000
01FFFFF000
03FFFFFC00
07FFFFFE00
0FFE07FF00
0FF803FF00
1FE003FF80
603C07FFC0
3F800FFFC0
3F00F0EFE0
7F001FCFE0
7E003F87E0
7E007F87E0
F1F0FF07F0
FC00FE03F0
FC01FC03F0
FC03FC03F0
FC07F803F0
FC0FF003F0
7E0FE1F870
7E1FC007E0
7E3FC007E0
7F7F800FE0
3FF8F81FC0
3FFE003FC0
1FFE007F80
0FFC00FF80
0FFC03FF00
07FFFFFE00
03FFFFFC00
01FFFE0600
007FFFF000
001FFFC000
0003FE0000
ENDCHAR
STARTCHAR Y
ENCODING 89
SWIDTH 1020 0
DWIDTH 51 0
BBX 23 38 14 -1
BITMAP
7E0000
71E000
7E0000
7E0000
7E0000
7E0000
7FFE00
7FFF80
7FFFC0
7FFFE0
7FFFF0
7E07F8
7E01FC
7E00FC
79F07C
7E007E
7E007E
7E003E
7E003E
7E003E
7E07C6
7E007E
7E007E
81E0FC
7E00FC
7E01FC
7E07F8
7FFFF0
7FFFE0
7FF83C
7FFF80
7FFE00
7E0000
7E0000
7E0000
7E0000
7E0000
7E0000
ENDCHAR
STARTCHAR Z
ENCODING 90
SWIDTH 1020 0
DWIDTH 51 0
BBX 33 40 9 -3
BITMAP
0000FF8000
0007FFF000
001FF1FC00
003FFFFE00
007FFFFF00
00FFFFFF80
01FF80FF00
03FE003E00
0787E00C00
07F8000000
0FE0000000
0FE0000000
0FC0000000
1FC0000000
1F80000000
1C78000000
1F80000000
1F80000000
1F80000000
1F80000000
1F80000000
1F80000000
E07F000000
1FC0000000
0FC0000000
0FE0000000
0FE0000000
07F03F8000
07F8001C00
03FE003E00
01FF80FF00
00FFFFFF80
007FFFFF00
003FFFFE00
00F01FF800
0007FFF000
00007F0000
00007E0000
00007E0000
00007E0000
ENDCHAR
STARTCHAR bracketleft
ENCODING 91
SWIDTH 1020 0
DWIDTH 51 0
BBX 38 48 7 -5
BITMAP
0003FE0000
0003FE0000
0003FE0000
0003FE0000
0003FE0000
0003FF0000
003FFFE000
00FFFFF800
01FFFFFC00
07FFFFFF00
0FFFFFFF80
0FFFFFFFC0
1FFFFFFFC0
3FFFFFFFE0
3FFBFEFFE0
7FF3FE3FF0
7FE3FE3FF0
FFC3FE1FF8
FFC0001FF8
FFC0000FF8
FF80000FF8
FF80000FF8
FF80000FFC
FF80000FFC
FF80000FFC
FF80000FFC
FF80000FFC
FF80000FF8
FF80000FF8
FFC0001FF8
FFC3FE1FF8
7FC3FE1FF8
7FE3FE3FF0
7FF3FE7FF0
3FFBFEFFE0
3FFFFFFFE0
1FFFFFFFC0
0FFFFFFF80
07FFFFFF00
03FFFFFE00
01FFFFFC00
007FFFF000
001FFFC000
0003FE0000
0003FE0000
0003FE0000
0003FE0000
0003FE0000
ENDCHAR
STARTCHAR backslash
ENCODING 92
SWIDTH 1020 0
DWIDTH 51 0
BBX 1 1 25 0
BITMAP
00
ENDCHAR
STARTCHAR bracketright
ENCODING 93
SWIDTH 1020 0
DWIDTH 51 0
BBX 33 39 9 -11
BITMAP
03FFFFF000
03FFFFF000
03FFFFF000
03FFFFF000
03FFFFF000
07FFFFF000
07FFFFF000
07F81FF000
07F81FF000
07F81FF000
07F81FF000
07F81FF000
07F81FF000
0FF81FF000
0FF01FF000
0FF01FF000
0FF01FF000
0FF01FF000
0FF01FF000
1FE01FF000
1FE01FF000
3FE01FF000
FFFFFFFF80
FFFFFFFF80
FFFFFFFF80
FFFFFFFF80
FFFFFFFF80
FFFFFFFF80
FFFFFFFF80
FF0000FF80
FF0000FF80
FF0000FF80
FF0000FF80
FF0000FF80
FF0000FF00
FF0000FF00
FF0000FF00
FF0000FF00
FF0000FF00
ENDCHAR
STARTCHAR asciicircum
ENCODING 94
SWIDTH 1020 0
DWIDTH 51 0
BBX 49 48 1 -5
BITMAP
0000E000007000
0600FC07007E00
1E00FF0F007F80
3F00FE3F807F00
FF01FE7F80FF00
7F81FE3F80FF00
7F81FC3FC0FE00
3FC3FC1FC0FE00
1FC3FC1FE1FE00
1FE3F80FE1FC00
0FE3F80FF1FC00
0FF7F807F3F800
07F7F007FBF800
07F7F003FBF800
03FFF003FFF000
03FFE001FFF000
03FFE001FFF000
01FFE000FFE000
01FFC000FFE000
00FFC000FFE000
00FFC0007FC000
007F80007FC000
007F80003FC000
007F00003F8000
007F80003F8000
007F80007FC000
00FFC0007FC000
00FFC0007FE000
00FFC000FFE000
01FFE000FFE000
01FFE001FFF000
03FFE001FFF000
03FFF003FFF800
07FFF003FBF800
07F7F807FBF800
0FF3F807F9FC00
0FF3F80FF1FC00
1FE3FC0FF1FE00
1FE1FC1FE0FE00
3FC1FE1FE0FF00
3FC0FE3FC0FF00
7F80FE3FC07F00
7F80FF7F807F80
FF007E7F803F80
7F007C3F003F00
1E00781F003C00
0E00200E001800
04000002001000
ENDCHAR
STARTCHAR underscore
ENCODING 95
SWIDTH 1020 0
DWIDTH 51 0
BBX 37 37 7 1
BITMAP
4000700010
E000FC0038
7001FC0070
3801FC00E0
1C01FC01C0
0E01FC0380
0700F80700
0380300E00
01C0001C00
00E0003800
0070007000
003800E000
001C01C000
000E038000
0007070000
3C038E01E0
7E01DC03F0
FF00F803F8
FF007007F8
FF00F807F8
FE01DC03F8
7E038E03F0
18070700E0
000E038000
001C01C000
003800E000
0070007000
00E0003800
01C0001C00
0380300E00
0700F80700
0E01FC0380
1C01FC01C0
3801FC00E0
7001FC0070
E000FC0038
4000700010
ENDCHAR
STARTCHAR grave
ENCODING 96
SWIDTH 1020 0
DWIDTH 51 0
BBX 24 43 14 -3
BITMAP
010000
01E000
01F800
01FC00
01FC00
01FC00
01FC00
01FC00
03F800
03F800
03F800
03F800
03F800
03F800
07F000
07F000
07F000
07F0E0
07F1E0
07E7E0
0FE7F0
0FE7F0
0FE7F0
0FE7F0
0FE3F8
0FC3F8
1FC3F8
1FC1F8
1FC1FC
1FC1FC
1FCFFC
3FFFFC
FFFFFE
FFFFFE
FFFFFE
FFFFFE
FFFFFE
FFFFFF
FFF87F
7F007F
00007E
000078
000060
ENDCHAR
STARTCHAR a
ENCODING 97
SWIDTH 1020 0
DWIDTH 51 0
BBX 46 45 3 -5
BITMAP
000000001800
07C000003C00
1FF000007E00
3FF80000FF00
3FFC0001FF80
7FFE0003FFC0
7FFF0007FFE0
7FFF800FFFF0
7FFFC01FFFF8
7FFFE03FFFFC
3FFFF07FFFF8
1FFFF8FFFFF0
0FFFFDFFFFE0
07FFFFFFFFC0
03FFFFFFFF80
01FFFFFFFE00
00FFFFFFFC00
007FFFFFF800
003FFFFFF000
001FFFFFE000
000FFFFFC000
0007FFFF8000
0007FFFF0000
000FFFFF0000
001FFFFF8000
003FFFFFC000
007FFFFFE000
00FFFFFFF000
01FFFFFFF800
03FFFFFFFC00
07FFFFFFFE00
0FFFFFFFFF00
1FFFFEFFFF80
3FFFFC7FFFC0
7FFFF83FFFE0
FFFFF01FFFE0
7FFFE00FFFE0
3FFFC007FFE0
1FFF8003FFE0
0FFF0001FFE0
07FE0000FFC0
03FC00007FC0
01F800003F00
00F000000000
006000000000
ENDCHAR
STARTCHAR b
ENCODING 98
SWIDTH 1020 0
DWIDTH 51 0
BBX 46 43 3 -4
BITMAP
00003FF80000
00003FF80000
00003FF80000
00003FF80000
00003FF80000
00003FF80000
00003FF80000
00003FF80000
00003FF80000
00003FF80000
00003FF80000
00003FF80000
00003FF80000
00003FF80000
00003FF80000
00003FF80000
00003FF80000
1FFFFFFFFFF0
3FFFFFFFFFF8
7FFFFFFFFFFC
FFFFFFFFFFFC
FFFFFFFFFFFC
FFFFFFFFFFFC
FFFFFFFFFFFC
7FFFFFFFFFFC
3FFFFFFFFFF8
1FFFFFFFFFF0
00003FF80000
00003FF80000
00003FF80000
00003FF80000
00003FF80000
00003FF80000
00003FF80000
00003FF80000
00003FF80000
00003FF80000
00003FF80000
00003FF80000
00003FF80000
00003FF80000
00003FF80000
00003FF80000
ENDCHAR
STARTCHAR c
ENCODING 99
SWIDTH 1020 0
DWIDTH 51 0
BBX 45 45 3 -4
BITMAP
004000000000
00E000000F80
01F000003FC0
03F800007FE0
07FC0000FFF0
0FFE0001FFF0
1FFF0003FFF0
3FFF8007FFF0
7FFFC00FFFF0
FFFFE01FFFF0
7FFFF03FFFF0
3FFFF87FFFE0
1FFFFCFFFFC0
0FFFFFFFFF80
07FFFFFFFF00
03FFFFFFFE00
01FFFFFFFC00
00FFFFFFF800
007FFFFFF000
003FFFFFE000
001FFFFFC000
000FFFFF8000
0007FFFF0000
0007FFFF8000
000FFFFFC000
001FFFFFE000
003FFFFFF000
007FFFFFF800
00FFFFFFFC00
01FFFFFFFE00
03FFFFFFFF00
07FFFFFFFF80
0FFFFDFFFFC0
1FFFF8FFFFE0
3FFFF07FFFF0
3FFFE03FFFF8
3FFFC01FFFF8
3FFF800FFFF0
3FFF0007FFE0
1FFE0003FFC0
1FFC0001FF80
0FF80000FF00
07F000007E00
000000003C00
000000001800
ENDCHAR
STARTCHAR d
ENCODING 100
SWIDTH 1020 0
DWIDTH 51 0
BBX 24 43 14 -4
BITMAP
002000
002000
002000
002000
002000
002000
000000
002000
00A800
01AC00
01AC00
01AC00
01AC00
00A800
002000
000000
002000
002000
004000
004F00
000FC0
0003E0
0001F8
0000F8
00007C
10003E
30003E
70003E
70003F
F0003F
F0003F
F0003F
F0007F
F8007F
FC00FE
7E01FE
7F87FE
3FFFFC
1FFFF8
0FFFF0
07FFE0
03FFC0
00FF00
ENDCHAR
STARTCHAR e
ENCODING 101
SWIDTH 1020 0
DWIDTH 51 0
BBX 44 41 4 -1
BITMAP
000004000000
000006000000
000006000000
000006000000
00000F000000
00000F000000
00000F000000
00001F800000
00001F800000
00001F800000
00003FC00000
00003FC00000
00003FC00000
00007FE00000
00007FE00000
FFFFFFFFFFF0
7FFFFFFFFFE0
1FFFFFFFFF80
0FFFFFFFFF00
03FFFFFFFC00
01FFFFFFF800
00FFFFFFF000
003FFFFFC000
001FFFFF8000
000FFFFF0000
0007FFFE0000
0007FFFE0000
0007FFFE0000
000FFFFF0000
000FFFFF0000
000FFFFF0000
001FFFFF8000
001FF9FF8000
001FE07F8000
001FC03F8000
003F000FC000
003E0007C000
003C0003C000
00700000E000
006000006000
00C000002000
ENDCHAR
STARTCHAR f
ENCODING 102
SWIDTH 1020 0
DWIDTH 51 0
BBX 34 38 9 -1
BITMAP
1000000100
3C00000F00
3F80003F80
3FE001FF80
7FF807FF80
7FFC0FFFC0
FFF807FFC0
3FF807FF00
0FF807FC00
07F003F800
07F003F800
07F003FC00
0FF003FC00
0FE001FC00
0FE001FE00
0FE001FE00
1FE001FE00
1FE000FF00
1FE000FF00
1FE000FF00
1FE000FF00
1FE000FF00
1FE000FF00
1FE000FF00
1FE000FF00
1FE001FF00
1FF001FE00
1FF003FE00
0FFC07FE00
0FFFFFFC00
0FFFFFFC00
07FFFFFC00
03FFFFF800
03FFFFF000
00FFFFE000
007FFFC000
001FFF8000
0003FC0000
ENDCHAR
STARTCHAR g
ENCODING 103
SWIDTH 1020 0
DWIDTH 51 0
BBX 37 46 7 -5
BITMAP
0003FE0000
001FFFC000
007FFFF000
01FFFFF800
03FFFFFE00
07FFFFFF00
0FFFFFFF80
1FFFFFFFC0
1FFFFFFFC0
3FFFFFFFE0
7FFFFFFFE0
7FFFFFFFF0
7FFFFFFFF0
FFFFFFFFF8
FFFFFFFFF8
FFFFFFFFF8
FFFFFFFFF8
FFFFFFFFF8
FFFFFFFFF8
FF07FF07F8
FE01FC03F8
FC00F801F8
F800F800F8
7800F800F0
7800F800F0
7800F800F0
3800F800E0
3C00F801E0
1E01FC03C0
0F07FF0780
07FFFFFF00
03FFFFFE00
01FFFFFC00
00FFFFF800
003FFFE000
003FFFE000
003FFFE000
003FFFE000
003FFFE000
003FFFE000
003FFFE000
003FFFE000
001FFFC000
000FFF8000
0007FF0000
0000FC0000
ENDCHAR
STARTCHAR h
ENCODING 104
SWIDTH 1020 0
DWIDTH 51 0
BBX 37 40 7 -2
BITMAP
3FFFFFFFE0
7FFFFFFFF0
FFFFFFFFF8
FFFFFFFFF8
FFFFFFFFF8
FFFFFFFFF8
FFFFF01FF8
FFF8001FF8
FFC0000FF8
0000000000
0000000000
1F80000FC0
3F80000FE0
7F80000FF0
3F800007E0
3F800007E0
3FC00007E0
3FC00007E0
3FC00007E0
3FC00007E0
3FC00003E0
3FC00003E0
3FE00007E0
3FE00007E0
3FE0003FE0
3FE01FFFE0
3FFFFFFFE0
3FFFFFFFE0
1FFFFFFFC0
1FFFFFFFC0
1FFFFFFFC0
1FFFFFFFC0
1FFFFFFFC0
1FFFFFFFC0
1FFFFFFFC0
1FFFFFFFC0
1FFFFFFFC0
1FFFFFFFC0
1FFFFFFFC0
07FFFFFF00
ENDCHAR
STARTCHAR i
ENCODING 105
SWIDTH 1020 0
DWIDTH 51 0
BBX 43 33 4 0
BITMAP
000100100000
000300180000
0007001C0000
000F001E0000
000F001F0000
001F001F0000
003F001F8000
007F001FC000
00FF001FE000
01FF001FF000
03FF001FF800
07FF001FFC00
07FF001FFC00
0FFF001FFE00
1FFFFFFFFF00
3FFF001FFF80
7FFF001FFFC0
7FFF001FFFC0
FFFF001FFFE0
FFFF803FFFE0
FFFFC0FFFFE0
FFFFFFFFFFE0
FFFFFFFFFFE0
FFFFFFFFFFE0
FFFFFFFFFFE0
FFFFFBFFFFE0
7FFFFBFFFFC0
7FFFF1FFFFC0
3FFFF1FFFF80
1FFFE0FFFF00
0FFF803FFE00
03FF001FF800
000000010000
ENDCHAR
STARTCHAR j
ENCODING 106
SWIDTH 1020 0
DWIDTH 51 0
BBX 38 43 7 -4
BITMAP
0001FE0000
000FFFC000
003FFFF000
007FFFF800
00FFFFFC00
03FFFFFE00
03FFFFFF00
07FFFFFF80
0FFFFFFFC0
1FFFFFFFE0
1FFFFFFFE0
3FFFFFFFF0
3FFFFFFFF0
7FFFFFFFF0
7FFFFFFFF8
7007FF8038
7003FF0038
F001FE003C
F000FC003C
F000FC003C
F000FC003C
F000FC003C
F000FC003C
F000FC003C
F800FC007C
FC00FC00FC
FE00FC01FC
FF80FC07FC
FFFFFFFFFC
FFFFFFFFFC
7FFFFFFFF8
7FFFFFFFF8
0000000000
0000000000
0000000000
0000000000
0003870000
0007CF8000
000FFFC000
000FFFC000
0007FF8000
0007FF8000
0001FE0000
ENDCHAR
STARTCHAR k
ENCODING 107
SWIDTH 1020 0
DWIDTH 51 0
BBX 32 46 10 -5
BITMAP
000FF000
007FFE00
01FFFF80
03FFFFC0
07FFFFE0
0FFFFFF0
1FFFFFF8
3FFFFFFC
3FFFFFFC
7FFFFFFE
7FFFFFFE
7FFFFFFE
FFFFFFFF
FFFFFFFF
FFFFFFFF
FFFFFFFF
F81FF81F
F00FF00F
F007E00F
E007E007
E007E007
E007E007
E007E007
F007E00F
F80FF01F
FC3FFC3F
FFFFFFFF
FFF83FFF
FFF01FFF
FFE00FFE
7FE00FFC
7FC007F8
1FC007F0
01C00700
01C00700
01C00700
01C00700
01E00F00
01E00F00
01F01F00
01FC7F00
01FFFF00
00FFFE00
00FFFE00
007FFC00
001FF000
ENDCHAR
STARTCHAR l
ENCODING 108
SWIDTH 1020 0
DWIDTH 51 0
BBX 35 45 8 -5
BITMAP
00FFFFE000
03FFFFF800
0FFFFFFE00
1FFFFFFF00
3FFFFFFF80
3FFFFFFF80
7FFFFFFFC0
7FFFFFFFC0
FFFFFFFFE0
FFFFFFFFE0
FFFFFFFFE0
FFFFFFFFE0
FFFFFFFFE0
FFFFFFFFE0
FFFFFFFFE0
FFFFFFFFE0
FFFFFFFFE0
FFFFFFFFE0
FF3FFF9FE0
FC07FC07E0
F803F803E0
F003F801E0
F001F001E0
F001F001E0
F001F001E0
F001F001E0
F803F803E0
F807FC03E0
FE0FFE0FE0
FFFFFFFFE0
FFFFFFFFE0
FFFFFFFFE0
7FFFFFFFC0
7FFFFFFFC0
1FFFFFFF00
001FFF0000
001FFF0000
001FFF0000
0000000000
0000000000
001FFF0000
001FFF0000
000FFE0000
0007FC0000
0001F00000
ENDCHAR
STARTCHAR m
ENCODING 109
SWIDTH 1020 0
DWIDTH 51 0
BBX 40 41 6 -3
BITMAP
00FFFFFF00
03FFFFFFC0
0FFFFFFFF0
1FFFFFFFF8
3FFFFFFFFC
3FFFFFFFFC
7FFFFFFFFE
7FFFFFFFFE
FFFFFFFFFF
FFFFFFFFFF
FFFFFFFFFF
FFFFFFFFFF
FFFFFFFFFF
FFFFFFFFFF
FC1FFFF83F
F80FFFF01F
F007FFE00F
F007FFE00F
F007FFE00F
F007FFE00F
F007FFE00F
F80FFFF01F
FC1FFFF83F
FFFFFFFFFF
FFFFFFFFFF
FFFFFFFFFF
FFFFFFFFFF
FFFFFFFFFF
FFFE007FFF
FFFE007FFF
FFFE007FFF
FFFFFFFFFF
FFFFFFFFFF
FFFFFFFFFF
FFFFFFFFFF
FFFFFFFFFF
FFFFFFFFFF
7FFFFFFFFE
3FFFFFFFFC
1FFFFFFFF8
07FFFFFFE0
ENDCHAR
STARTCHAR n
ENCODING 110
SWIDTH 1020 0
DWIDTH 51 0
BBX 38 41 7 -3
BITMAP
0003F00000
000FC00000
003FC00000
007F800000
01FF000000
03FF000000
07FE000000
07FE000000
0FFE000000
1FFC000000
1FFC000000
3FFC000000
3FFC000000
7FFC000000
7FFC000000
7FFC000000
7FFC000000
FFFC000000
FFFC000000
FFFE000000
FFFE000000
FFFE000000
FFFF000000
FFFF000000
7FFF800000
7FFFC00000
7FFFC00000
3FFFE00000
3FFFF00000
3FFFFC0000
1FFFFE0000
0FFFFF8000
0FFFFFFC3C
07FFFFFFF8
03FFFFFFF0
01FFFFFFE0
00FFFFFFC0
007FFFFF80
001FFFFE00
0007FFF800
0000FFC000
ENDCHAR
STARTCHAR o
ENCODING 111
SWIDTH 1020 0
DWIDTH 51 0
BBX 35 38 8 2
BITMAP
0020000000
0000000800
0000000000
0008000000
0000002000
0000000000
0001000000
0000000000
0000708000
000F9E0000
003F818000
007FC8C000
00FFC0E000
00FFC0E000
01FFE0F000
03FFF3F000
07FFFFF000
0FFFFFF000
1FFFFFF000
3FFFFFF300
3FFFFFF300
7FFFFFE380
7FFFFFE380
7FFFFFC7C0
FFFFFF87C0
FFFFFF0FE0
FFFFFE1FE0
7FFFFE3FE0
7FFFFC7FE0
7FFFF87FE0
3FFFF0FFE0
3FFFE1FFE0
1FFFC3FFC0
07FF87FFC0
03FF0FFF80
00FC1FFF00
00001FFE00
00000FF800
ENDCHAR
STARTCHAR p
ENCODING 112
SWIDTH 1020 0
DWIDTH 51 0
BBX 41 48 5 -6
BITMAP
FFFFFFFFFE00
FFFFFFFFFF80
FFFFFFFFFF80
FFFFFFFFFF80
FFFFFFFFFF80
FFFFFFFFFF80
FFFFFFFFFF80
FFFFFFFFFF80
FF0FFFF0FF80
FC07FFE03F80
F803FFC03F80
F801FF801F80
F801FF801F80
F801FF801F80
F801FF801F80
F803FFC01F80
FC03FFC03F80
FE0FFFE07F80
FFFFFFFFFF80
FFFFFFFFFF80
FFFFFFFFFF80
FFFFFFFFFF80
FFFFFFFFFF80
FFFFFFFFFF80
FFFFFFFFFF80
FFFFFFFFFF80
FFFFFFFFFF80
FFFFFFFFFF80
FFFFFFFFFF80
FFFFFFFFFF80
FFFFFFFFFF80
FFFFFFFFFF80
FFFFFFFFFF80
FFFFFFFFFF80
FFFFFFFFFF80
FFFFFFFFFF80
FFFFFFFFFF80
FFFFFFFFFF80
FFFFFFFFFF80
FFFFFFFFFF80
7FFFFFFFFF00
1FFFFFFFFC00
148000000000
048000000000
048000000000
040000000000
040000000000
040000000000
ENDCHAR
STARTCHAR q
ENCODING 113
SWIDTH 1020 0
DWIDTH 51 0
BBX 48 38 2 -1
BITMAP
000007E00000
00007FFE0000
0001FFFF8000
0007FFFFE000
000FF00FF000
003FC001F800
007F00007E00
00FC00003E00
00F800001F00
01F000000F80
03E0000007C0
03E0000003C0
07C0000003E0
0FC003E001F0
1F800FF801F8
1F801FFC01F8
3F803FFC00FC
7F803FFE00FE
FF007FFE00FF
FF007FFE00FF
7F007FFE00FE
3F003FFE00FC
3F803FFE00FC
1F801FFC00F8
0F801FF801F0
07C007F001E0
07C0000003E0
03E0000003C0
01E000000780
01F000000F80
00F800000F00
007C00003E00
003E00007C00
001F8001F800
0007F007E000
0003FFFFC000
0000FFFE0000
00000FF00000
ENDCHAR
STARTCHAR r
ENCODING 114
SWIDTH 1020 0
DWIDTH 51 0
BBX 25 45 13 -5
BITMAP
00180000
00380000
007C0000
007C0000
007E0000
007E0000
007E0000
007E0000
003C0000
003C0000
003C0000
001E0000
001F8000
000FE000
0003F000
1F00F000
3FE0F000
7FFFF000
7FFFF000
F80FC000
F0000000
F0000000
F80FFC00
FFFFFE00
FFFFFF00
7FFFFF80
3FFFFF80
1FE07F80
00001F80
00000F80
07F00F80
07FE1F80
0FFFFF00
0FFFFF00
0E07FC00
0F800000
07FE0000
01FF8000
0001C000
0000C000
00004000
00004000
0000C000
00018000
000F0000
ENDCHAR
STARTCHAR s
ENCODING 115
SWIDTH 1020 0
DWIDTH 51 0
BBX 32 38 10 -1
BITMAP
0003C000
007FFE00
01FFFF80
07FFFFE0
0FFFFFF0
1FFFFFF8
3FFFFFFC
7FFFFFFE
FFFFFFFF
FFFFFFFF
FFFFFFFF
FFFFFFFF
FFFFFFFF
FFFFFFFF
FFFFFFFF
FFFFFFFF
FC0FF81F
F807F00F
F007F007
F003E007
7003E006
7003E002
7003E006
70067006
70067006
780C3C0E
7C3C3E1E
3FF81FFC
1FF81FF8
0FF81FF0
03F9BFC0
00FFFF00
007FFE00
007FFE00
007FFE00
007FFE00
007FFE00
000FF800
ENDCHAR
STARTCHAR t
ENCODING 116
SWIDTH 1020 0
DWIDTH 51 0
BBX 30 39 11 -2
BITMAP
07FFF000
1FFFF000
3FFFF000
7FFFF000
7FFFF008
FFFFF90C
FFFFFF0C
FFFFFF0C
FFFFFF9C
FFFFFFFC
00000000
00000000
3FFC07F8
1E0001F0
000000E0
00000000
00000000
3FFFFFF0
7FFFFFF8
7FFFFFF8
3FFFFFF0
00000000
00000000
FFFFFFFC
FFFFFFFC
FFFFFFFC
FFFFFFFC
7FFFFFF8
3FFFFFF0
3FFFFFE0
3FF80000
3F780000
33180000
33000000
33000000
03000000
03000000
01000000
01000000
ENDCHAR
STARTCHAR u
ENCODING 117
SWIDTH 1020 0
DWIDTH 51 0
BBX 46 47 3 -8
BITMAP
00003FF00000
0001FFFEF800
000FFFFFFE00
001FFFFFFF00
007FFFFFE780
00FFFFFFC3C0
01FFFFFFC3C0
03FFFFFFE7C0
07FFFFFFFFC0
0FFFFFFFFFC0
1FFFFFFF8000
1FFFFC7F8000
3FFFC01FBFF0
3FFF800FBFF0
7FFE0007BFF8
7FFC0003BFF8
7FF80001BFF8
FFF800003FFC
FFF000003FFC
FFF000003FFC
FFE000001FFC
FFE000001FFC
FFE000001FFC
FFE000001FFC
FFE000001FFC
FFE000001FFC
FFE000001FFC
FFE000001FFC
FFF000003FFC
FFF000003FFC
7FF800007FF8
7FFC0000FFF8
7FFE0001FFF8
3FFF0003FFF0
3FFF8007FFF0
1FFFF03FFFE0
1FFFFFFFFFE0
0FFFFFFFFFC0
07FFFFFFFF80
03FFFFFFFF00
01FFFFFFFE00
00FFFFFFFC00
007FFFFFF800
001FFFFFE000
000FFFFFC000
0001FFFE0000
00003FF00000
ENDCHAR
STARTCHAR v
ENCODING 118
SWIDTH 1020 0
DWIDTH 51 0
BBX 35 44 8 -7
BITMAP
00071C0000
007F9FC000
01FF9FF000
03FF9FF800
07FF9FFC00
0FFF9FFE00
1FFF9FFF00
3FFF9FFF80
3FFF9FFF80
7FFF9FFFC0
7FFF9FFFC0
FFFF9FFFE0
FFFF9FFFE0
FFFF9FFFE0
FFFF9FFFE0
FFFF9FFFE0
FFFF9FFFE0
FFFF9FFFE0
FFFF9FFFE0
FFFF9FFFE0
FE1F9F0FE0
FC079C07E0
F8039803E0
F0039801E0
F0039801E0
F0039801E0
F0039801E0
F0039801E0
F8079C03E0
FC079C07E0
FF1F9F1FE0
FFFF9FFFE0
FFFF9FFFE0
7FFF9FFFC0
3FFF9FFF80
1FFF9FFF00
00FF9FE000
00FF9FE000
00FF9FE000
00FF9FE000
00FF9FE000
00FF9FE000
007F9FC000
003F9F8000
ENDCHAR
STARTCHAR w
ENCODING 119
SWIDTH 1020 0
DWIDTH 51 0
BBX 32 43 10 -4
BITMAP
000001FC
000001FE
000001FF
000001FF
000001FF
000001FF
001801FF
003801FF
003C01FF
007C01FF
007C01FF
007C01FF
007C01FF
007C01FF
003C01FF
003C01FF
001801FF
000001FE
000001FC
7FFFFF80
FFFFFF80
FFFFFF80
FFFFFF80
FFFFFF80
FFFFFF80
FFFFFF80
FFFFFF80
FFFFFF80
FFFFFF80
FFFFFF80
FFFFFF80
FFFFFF80
FFFFFF80
FFFFFF80
FFFFFF80
FFFFFF80
FFFFFF80
FFFFFF80
FFFFFF80
FFFFFF80
FFFFFF80
FFFFFF80
7FFFFF80
ENDCHAR
STARTCHAR x
ENCODING 120
SWIDTH 1020 0
DWIDTH 51 0
BBX 40 36 6 0
BITMAP
0000180000
0000180000
00003C0000
00003C0000
00007E0000
00007F0000
0000E30000
0001818000
0001008000
000300C000
000300C000
000700E000
000781F000
000FC3F000
001FFFF800
001FFFF800
001FFFF800
0000000000
0000000000
007FFFFE00
00FFFFFF00
00FFFFFF80
01FFFFFF80
03FFFFFFC0
03FFFFFFC0
07FFFFFFE0
07FFFFFFE0
0FFFFFFFF0
0FFFFFFFF8
1FFFFFFFF8
3FFFFFFFFC
3FFFFFFFFC
7FFFFFFFFE
7FFFFFFFFE
FFFFFFFFFF
FFFFFFFFFF
ENDCHAR
STARTCHAR y
ENCODING 121
SWIDTH 1020 0
DWIDTH 51 0
BBX 34 38 9 -1
BITMAP
07FBE00000
1FFFFC0000
1FFFFF0000
1FFFFFC000
1FFFFFE000
1FFFFFF000
1F801FF800
1F8007FC00
1F8001FC00
1F8000FE00
1F80007E00
1E78007F00
1F80003F00
1F800FC0C0
1F80003F80
FFFE001F80
FFFE001F80
FFFE001F80
FFFE001F80
FFFE001F80
FFFE001F80
1F80003F80
1F80003F00
1F80003F00
1F80007F00
1F80007E00
1F800F0600
1F8001FE00
1F8003FC00
20800FF800
20803FF800
1FFFFFF000
1FFFFFE000
1FFFFFC000
1FFFFF0000
1FC03C0000
1FC0200000
1E3FC00000
ENDCHAR
STARTCHAR z
ENCODING 122
SWIDTH 1020 0
DWIDTH 51 0
BBX 21 38 15 -1
BITMAP
7FFFE0
7FFFE0
7FF010
7FFFE0
7FFFE0
7FFFE0
0007E0
0007E0
0039E0
0007E0
0007E0
0007E0
0007E0
03F860
0007E0
0007E0
0007E0
0007E0
0007E0
000798
0007E0
0007E0
0007E0
000FE0
000FC0
00E1C0
0027C0
003F80
1C7F80
00FF00
01FF00
07FE00
7FFD00
7FF800
7FF000
81C000
7F8000
7C0000
ENDCHAR
STARTCHAR braceleft
ENCODING 123
SWIDTH 1020 0
DWIDTH 51 0
BBX 9 43 21 -2
BITMAP
3E00
7F00
FF80
FF80
FF80
FF80
FF80
7F00
1E00
0000
0000
0000
0000
0000
0000
0000
0000
1E00
7F00
FF80
FF80
FF80
FF80
FF80
7F00
3E00
0000
0000
0000
0000
0000
0000
0000
0000
1E00
7F00
FF80
FF80
FF80
FF80
FF80
7F00
3E00
ENDCHAR
STARTCHAR bar
ENCODING 124
SWIDTH 1020 0
DWIDTH 51 0
BBX 9 35 21 2
BITMAP
1E00
7F00
FF80
FF80
FF80
FF80
FF80
7F00
3E00
0000
0000
0000
0000
0000
0000
0000
0000
0000
0000
0000
0000
0000
0000
0000
0000
0000
3E00
7F00
FF80
FF80
FF80
FF80
FF80
7F00
1E00
ENDCHAR
STARTCHAR braceright
ENCODING 125
SWIDTH 1020 0
DWIDTH 51 0
BBX 33 33 9 3
BITMAP
0001C00000
0007F00000
0007F80000
000FF80000
000FF80000
000FF80000
000FF80000
000FF80000
0007F00000
0003E00000
0000000000
0000000000
0000000000
0000000000
0000000000
0000000000
0000000000
0000000000
0000000000
0000000000
0000000000
0000000000
0000000000
1E00003E00
7F00007F00
FF8000FF80
FF8000FF80
FFC000FF80
FF8000FF80
FF8000FF80
7F8000FF80
7F00007F00
0C00000C00
ENDCHAR
STARTCHAR asciitilde
ENCODING 126
SWIDTH 1020 0
DWIDTH 51 0
BBX 33 33 9 3
BITMAP
1C00001C00
7F00007F00
7F8000FF80
FF8000FF80
FFC000FF80
FFC000FF80
FF8000FF80
FF8000FF80
7F00007F00
1E00003E00
0000000000
0000000000
0000000000
0000000000
0000000000
0000000000
0000000000
0000000000
0000000000
0000000000
0000000000
0000000000
0000000000
0003E00000
0007F00000
000FF80000
000FF80000
000FF80000
000FF80000
000FF80000
0007F80000
0007F00000
0000C00000
ENDCHAR
STARTCHAR uni007F
ENCODING 127
SWIDTH 1020 0
DWIDTH 51 0
BBX 1 1 25 0
BITMAP
00
ENDCHAR
STARTCHAR uni0080
ENCODING 128
SWIDTH 1020 0
DWIDTH 51 0
BBX 1 1 25 0
BITMAP
00
ENDCHAR
STARTCHAR uni0081
ENCODING 129
SWIDTH 1020 0
DWIDTH 51 0
BBX 1 1 25 0
BITMAP
00
ENDCHAR
STARTCHAR uni0082
ENCODING 130
SWIDTH 1020 0
DWIDTH 51 0
BBX 1 1 25 0
BITMAP
00
ENDCHAR
STARTCHAR uni0083
ENCODING 131
SWIDTH 1020 0
DWIDTH 51 0
BBX 1 1 25 0
BITMAP
00
ENDCHAR
STARTCHAR uni0084
ENCODING 132
SWIDTH 1020 0
DWIDTH 51 0
BBX 1 1 25 0
BITMAP
00
ENDCHAR
STARTCHAR uni0085
ENCODING 133
SWIDTH 1020 0
DWIDTH 51 0
BBX 1 1 25 0
BITMAP
00
ENDCHAR
STARTCHAR uni0086
ENCODING 134
SWIDTH 1020 0
DWIDTH 51 0
BBX 1 1 25 0
BITMAP
00
ENDCHAR
STARTCHAR uni0087
ENCODING 135
SWIDTH 1020 0
DWIDTH 51 0
BBX 1 1 25 0
BITMAP
00
ENDCHAR
STARTCHAR uni0088
ENCODING 136
SWIDTH 1020 0
DWIDTH 51 0
BBX 1 1 25 0
BITMAP
00
ENDCHAR
STARTCHAR uni0089
ENCODING 137
SWIDTH 1020 0
DWIDTH 51 0
BBX 1 1 25 0
BITMAP
00
ENDCHAR
STARTCHAR uni008A
ENCODING 138
SWIDTH 1020 0
DWIDTH 51 0
BBX 1 1 25 0
BITMAP
00
ENDCHAR
STARTCHAR uni008B
ENCODING 139
SWIDTH 1020 0
DWIDTH 51 0
BBX 1 1 25 0
BITMAP
00
ENDCHAR
STARTCHAR uni008C
ENCODING 140
SWIDTH 1020 0
DWIDTH 51 0
BBX 1 1 25 0
BITMAP
00
ENDCHAR
STARTCHAR uni008D
ENCODING 141
SWIDTH 1020 0
DWIDTH 51 0
BBX 1 1 25 0
BITMAP
00
ENDCHAR
STARTCHAR uni008E
ENCODING 142
SWIDTH 1020 0
DWIDTH 51 0
BBX 1 1 25 0
BITMAP
00
ENDCHAR
STARTCHAR uni008F
ENCODING 143
SWIDTH 1020 0
DWIDTH 51 0
BBX 1 1 25 0
BITMAP
00
ENDCHAR
STARTCHAR uni0090
ENCODING 144
SWIDTH 1020 0
DWIDTH 51 0
BBX 1 1 25 0
BITMAP
00
ENDCHAR
STARTCHAR uni0091
ENCODING 145
SWIDTH 1020 0
DWIDTH 51 0
BBX 1 1 25 0
BITMAP
00
ENDCHAR
STARTCHAR uni0092
ENCODING 146
SWIDTH 1020 0
DWIDTH 51 0
BBX 1 1 25 0
BITMAP
00
ENDCHAR
STARTCHAR uni0093
ENCODING 147
SWIDTH 1020 0
DWIDTH 51 0
BBX 1 1 25 0
BITMAP
00
ENDCHAR
STARTCHAR uni0094
ENCODING 148
SWIDTH 1020 0
DWIDTH 51 0
BBX 1 1 25 0
BITMAP
00
ENDCHAR
STARTCHAR uni0095
ENCODING 149
SWIDTH 1020 0
DWIDTH 51 0
BBX 1 1 25 0
BITMAP
00
ENDCHAR
STARTCHAR uni0096
ENCODING 150
SWIDTH 1020 0
DWIDTH 51 0
BBX 1 1 25 0
BITMAP
00
ENDCHAR
STARTCHAR uni0097
ENCODING 151
SWIDTH 1020 0
DWIDTH 51 0
BBX 1 1 25 0
BITMAP
00
ENDCHAR
STARTCHAR uni0098
ENCODING 152
SWIDTH 1020 0
DWIDTH 51 0
BBX 1 1 25 0
BITMAP
00
ENDCHAR
STARTCHAR uni0099
ENCODING 153
SWIDTH 1020 0
DWIDTH 51 0
BBX 1 1 25 0
BITMAP
00
ENDCHAR
STARTCHAR uni009A
ENCODING 154
SWIDTH 1020 0
DWIDTH 51 0
BBX 1 1 25 0
BITMAP
00
ENDCHAR
STARTCHAR uni009B
ENCODING 155
SWIDTH 1020 0
DWIDTH 51 0
BBX 1 1 25 0
BITMAP
00
ENDCHAR
STARTCHAR uni009C
ENCODING 156
SWIDTH 1020 0
DWIDTH 51 0
BBX 1 1 25 0
BITMAP
00
ENDCHAR
STARTCHAR uni009D
ENCODING 157
SWIDTH 1020 0
DWIDTH 51 0
BBX 1 1 25 0
BITMAP
00
ENDCHAR
STARTCHAR uni009E
ENCODING 158
SWIDTH 1020 0
DWIDTH 51 0
BBX 1 1 25 0
BITMAP
00
ENDCHAR
STARTCHAR uni009F
ENCODING 159
SWIDTH 1020 0
DWIDTH 51 0
BBX 1 1 25 0
BITMAP
00
ENDCHAR
STARTCHAR uni00A0
ENCODING 160
SWIDTH 1020 0
DWIDTH 51 0
BBX 1 1 25 0
BITMAP
00
ENDCHAR
STARTCHAR exclamdown
ENCODING 161
SWIDTH 1020 0
DWIDTH 51 0
BBX 1 1 25 0
BITMAP
00
ENDCHAR
STARTCHAR cent
ENCODING 162
SWIDTH 1020 0
DWIDTH 51 0
BBX 1 1 25 0
BITMAP
00
ENDCHAR
STARTCHAR sterling
ENCODING 163
SWIDTH 1020 0
DWIDTH 51 0
BBX 1 1 25 0
BITMAP
00
ENDCHAR
STARTCHAR currency
ENCODING 164
SWIDTH 1020 0
DWIDTH 51 0
BBX 1 1 25 0
BITMAP
00
ENDCHAR
STARTCHAR yen
ENCODING 165
SWIDTH 1020 0
DWIDTH 51 0
BBX 1 1 25 0
BITMAP
00
ENDCHAR
STARTCHAR brokenbar
ENCODING 166
SWIDTH 1020 0
DWIDTH 51 0
BBX 1 1 25 0
BITMAP
00
ENDCHAR
STARTCHAR section
ENCODING 167
SWIDTH 1020 0
DWIDTH 51 0
BBX 1 1 25 0
BITMAP
00
ENDCHAR
STARTCHAR dieresis
ENCODING 168
SWIDTH 1020 0
DWIDTH 51 0
BBX 1 1 25 0
BITMAP
00
ENDCHAR
STARTCHAR copyright
ENCODING 169
SWIDTH 1020 0
DWIDTH 51 0
BBX 1 1 25 0
BITMAP
00
ENDCHAR
STARTCHAR ordfeminine
ENCODING 170
SWIDTH 1020 0
DWIDTH 51 0
BBX 1 1 25 0
BITMAP
00
ENDCHAR
STARTCHAR guillemotleft
ENCODING 171
SWIDTH 1020 0
DWIDTH 51 0
BBX 1 1 25 0
BITMAP
00
ENDCHAR
STARTCHAR logicalnot
ENCODING 172
SWIDTH 1020 0
DWIDTH 51 0
BBX 1 1 25 0
BITMAP
00
ENDCHAR
STARTCHAR uni00AD
ENCODING 173
SWIDTH 1020 0
DWIDTH 51 0
BBX 1 1 25 0
BITMAP
00
ENDCHAR
STARTCHAR registered
ENCODING 174
SWIDTH 1020 0
DWIDTH 51 0
BBX 1 1 25 0
BITMAP
00
ENDCHAR
STARTCHAR macron
ENCODING 175
SWIDTH 1020 0
DWIDTH 51 0
BBX 1 1 25 0
BITMAP
00
ENDCHAR
STARTCHAR degree
ENCODING 176
SWIDTH 1020 0
DWIDTH 51 0
BBX 1 1 25 0
BITMAP
00
ENDCHAR
STARTCHAR plusminus
ENCODING 177
SWIDTH 1020 0
DWIDTH 51 0
BBX 1 1 25 0
BITMAP
00
ENDCHAR
STARTCHAR uni00B2
ENCODING 178
SWIDTH 1020 0
DWIDTH 51 0
BBX 1 1 25 0
BITMAP
00
ENDCHAR
STARTCHAR uni00B3
ENCODING 179
SWIDTH 1020 0
DWIDTH 51 0
BBX 1 1 25 0
BITMAP
00
ENDCHAR
STARTCHAR acute
ENCODING 180
SWIDTH 1020 0
DWIDTH 51 0
BBX 1 1 25 0
BITMAP
00
ENDCHAR
STARTCHAR mu
ENCODING 181
SWIDTH 1020 0
DWIDTH 51 0
BBX 1 1 25 0
BITMAP
00
ENDCHAR
STARTCHAR paragraph
ENCODING 182
SWIDTH 1020 0
DWIDTH 51 0
BBX 1 1 25 0
BITMAP
00
ENDCHAR
STARTCHAR periodcentered
ENCODING 183
SWIDTH 1020 0
DWIDTH 51 0
BBX 1 1 25 0
BITMAP
00
ENDCHAR
STARTCHAR cedilla
ENCODING 184
SWIDTH 1020 0
DWIDTH 51 0
BBX 1 1 25 0
BITMAP
00
ENDCHAR
STARTCHAR uni00B9
ENCODING 185
SWIDTH 1020 0
DWIDTH 51 0
BBX 1 1 25 0
BITMAP
00
ENDCHAR
STARTCHAR ordmasculine
ENCODING 186
SWIDTH 1020 0
DWIDTH 51 0
BBX 1 1 25 0
BITMAP
00
ENDCHAR
STARTCHAR guillemotright
ENCODING 187
SWIDTH 1020 0
DWIDTH 51 0
BBX 1 1 25 0
BITMAP
00
ENDCHAR
STARTCHAR onequarter
ENCODING 188
SWIDTH 1020 0
DWIDTH 51 0
BBX 1 1 25 0
BITMAP
00
ENDCHAR
STARTCHAR onehalf
ENCODING 189
SWIDTH 1020 0
DWIDTH 51 0
BBX 1 1 25 0
BITMAP
00
ENDCHAR
STARTCHAR threequarters
ENCODING 190
SWIDTH 1020 0
DWIDTH 51 0
BBX 1 1 25 0
BITMAP
00
ENDCHAR
STARTCHAR questiondown
ENCODING 191
SWIDTH 1020 0
DWIDTH 51 0
BBX 1 1 25 0
BITMAP
00
ENDCHAR
STARTCHAR Agrave
ENCODING 192
SWIDTH 1020 0
DWIDTH 51 0
BBX 1 1 25 0
BITMAP
00
ENDCHAR
STARTCHAR Aacute
ENCODING 193
SWIDTH 1020 0
DWIDTH 51 0
BBX 1 1 25 0
BITMAP
00
ENDCHAR
STARTCHAR Acircumflex
ENCODING 194
SWIDTH 1020 0
DWIDTH 51 0
BBX 1 1 25 0
BITMAP
00
ENDCHAR
STARTCHAR Atilde
ENCODING 195
SWIDTH 1020 0
DWIDTH 51 0
BBX 1 1 25 0
BITMAP
00
ENDCHAR
STARTCHAR Adieresis
ENCODING 196
SWIDTH 1020 0
DWIDTH 51 0
BBX 1 1 25 0
BITMAP
00
ENDCHAR
STARTCHAR Aring
ENCODING 197
SWIDTH 1020 0
DWIDTH 51 0
BBX 1 1 25 0
BITMAP
00
ENDCHAR
STARTCHAR AE
ENCODING 198
SWIDTH 1020 0
DWIDTH 51 0
BBX 1 1 25 0
BITMAP
00
ENDCHAR
STARTCHAR Ccedilla
ENCODING 199
SWIDTH 1020 0
DWIDTH 51 0
BBX 1 1 25 0
BITMAP
00
ENDCHAR
STARTCHAR Egrave
ENCODING 200
SWIDTH 1020 0
DWIDTH 51 0
BBX 1 1 25 0
BITMAP
00
ENDCHAR
STARTCHAR Eacute
ENCODING 201
SWIDTH 1020 0
DWIDTH 51 0
BBX 1 1 25 0
BITMAP
00
ENDCHAR
STARTCHAR Ecircumflex
ENCODING 202
SWIDTH 1020 0
DWIDTH 51 0
BBX 1 1 25 0
BITMAP
00
ENDCHAR
STARTCHAR Edieresis
ENCODING 203
SWIDTH 1020 0
DWIDTH 51 0
BBX 1 1 25 0
BITMAP
00
ENDCHAR
STARTCHAR Igrave
ENCODING 204
SWIDTH 1020 0
DWIDTH 51 0
BBX 1 1 25 0
BITMAP
00
ENDCHAR
STARTCHAR Iacute
ENCODING 205
SWIDTH 1020 0
DWIDTH 51 0
BBX 1 1 25 0
BITMAP
00
ENDCHAR
STARTCHAR Icircumflex
ENCODING 206
SWIDTH 1020 0
DWIDTH 51 0
BBX 1 1 25 0
BITMAP
00
ENDCHAR
STARTCHAR Idieresis
ENCODING 207
SWIDTH 1020 0
DWIDTH 51 0
BBX 1 1 25 0
BITMAP
00
ENDCHAR
STARTCHAR Eth
ENCODING 208
SWIDTH 1020 0
DWIDTH 51 0
BBX 1 1 25 0
BITMAP
00
ENDCHAR
STARTCHAR Ntilde
ENCODING 209
SWIDTH 1020 0
DWIDTH 51 0
BBX 1 1 25 0
BITMAP
00
ENDCHAR
STARTCHAR Ograve
ENCODING 210
SWIDTH 1020 0
DWIDTH 51 0
BBX 1 1 25 0
BITMAP
00
ENDCHAR
STARTCHAR Oacute
ENCODING 211
SWIDTH 1020 0
DWIDTH 51 0
BBX 1 1 25 0
BITMAP
00
ENDCHAR
STARTCHAR Ocircumflex
ENCODING 212
SWIDTH 1020 0
DWIDTH 51 0
BBX 1 1 25 0
BITMAP
00
ENDCHAR
STARTCHAR Otilde
ENCODING 213
SWIDTH 1020 0
DWIDTH 51 0
BBX 1 1 25 0
BITMAP
00
ENDCHAR
STARTCHAR Odieresis
ENCODING 214
SWIDTH 1020 0
DWIDTH 51 0
BBX 1 1 25 0
BITMAP
00
ENDCHAR
STARTCHAR multiply
ENCODING 215
SWIDTH 1020 0
DWIDTH 51 0
BBX 1 1 25 0
BITMAP
00
ENDCHAR
STARTCHAR Oslash
ENCODING 216
SWIDTH 1020 0
DWIDTH 51 0
BBX 1 1 25 0
BITMAP
00
ENDCHAR
STARTCHAR Ugrave
ENCODING 217
SWIDTH 1020 0
DWIDTH 51 0
BBX 1 1 25 0
BITMAP
00
ENDCHAR
STARTCHAR Uacute
ENCODING 218
SWIDTH 1020 0
DWIDTH 51 0
BBX 1 1 25 0
BITMAP
00
ENDCHAR
STARTCHAR Ucircumflex
ENCODING 219
SWIDTH 1020 0
DWIDTH 51 0
BBX 1 1 25 0
BITMAP
00
ENDCHAR
STARTCHAR Udieresis
ENCODING 220
SWIDTH 1020 0
DWIDTH 51 0
BBX 1 1 25 0
BITMAP
00
ENDCHAR
STARTCHAR Yacute
ENCODING 221
SWIDTH 1020 0
DWIDTH 51 0
BBX 1 1 25 0
BITMAP
00
ENDCHAR
STARTCHAR Thorn
ENCODING 222
SWIDTH 1020 0
DWIDTH 51 0
BBX 1 1 25 0
BITMAP
00
ENDCHAR
STARTCHAR germandbls
ENCODING 223
SWIDTH 1020 0
DWIDTH 51 0
BBX 1 1 25 0
BITMAP
00
ENDCHAR
STARTCHAR agrave
ENCODING 224
SWIDTH 1020 0
DWIDTH 51 0
BBX 1 1 25 0
BITMAP
00
ENDCHAR
STARTCHAR aacute
ENCODING 225
SWIDTH 1020 0
DWIDTH 51 0
BBX 1 1 25 0
BITMAP
00
ENDCHAR
STARTCHAR acircumflex
ENCODING 226
SWIDTH 1020 0
DWIDTH 51 0
BBX 1 1 25 0
BITMAP
00
ENDCHAR
STARTCHAR atilde
ENCODING 227
SWIDTH 1020 0
DWIDTH 51 0
BBX 1 1 25 0
BITMAP
00
ENDCHAR
STARTCHAR adieresis
ENCODING 228
SWIDTH 1020 0
DWIDTH 51 0
BBX 1 1 25 0
BITMAP
00
ENDCHAR
STARTCHAR aring
ENCODING 229
SWIDTH 1020 0
DWIDTH 51 0
BBX 1 1 25 0
BITMAP
00
ENDCHAR
STARTCHAR ae
ENCODING 230
SWIDTH 1020 0
DWIDTH 51 0
BBX 1 1 25 0
BITMAP
00
ENDCHAR
STARTCHAR ccedilla
ENCODING 231
SWIDTH 1020 0
DWIDTH 51 0
BBX 1 1 25 0
BITMAP
00
ENDCHAR
STARTCHAR egrave
ENCODING 232
SWIDTH 1020 0
DWIDTH 51 0
BBX 1 1 25 0
BITMAP
00
ENDCHAR
STARTCHAR eacute
ENCODING 233
SWIDTH 1020 0
DWIDTH 51 0
BBX 1 1 25 0
BITMAP
00
ENDCHAR
STARTCHAR ecircumflex
ENCODING 234
SWIDTH 1020 0
DWIDTH 51 0
BBX 1 1 25 0
BITMAP
00
ENDCHAR
STARTCHAR edieresis
ENCODING 235
SWIDTH 1020 0
DWIDTH 51 0
BBX 1 1 25 0
BITMAP
00
ENDCHAR
STARTCHAR igrave
ENCODING 236
SWIDTH 1020 0
DWIDTH 51 0
BBX 1 1 25 0
BITMAP
00
ENDCHAR
STARTCHAR iacute
ENCODING 237
SWIDTH 1020 0
DWIDTH 51 0
BBX 1 1 25 0
BITMAP
00
ENDCHAR
STARTCHAR icircumflex
ENCODING 238
SWIDTH 1020 0
DWIDTH 51 0
BBX 1 1 25 0
BITMAP
00
ENDCHAR
STARTCHAR idieresis
ENCODING 239
SWIDTH 1020 0
DWIDTH 51 0
BBX 1 1 25 0
BITMAP
00
ENDCHAR
STARTCHAR eth
ENCODING 240
SWIDTH 1020 0
DWIDTH 51 0
BBX 1 1 25 0
BITMAP
00
ENDCHAR
STARTCHAR ntilde
ENCODING 241
SWIDTH 1020 0
DWIDTH 51 0
BBX 1 1 25 0
BITMAP
00
ENDCHAR
STARTCHAR ograve
ENCODING 242
SWIDTH 1020 0
DWIDTH 51 0
BBX 1 1 25 0
BITMAP
00
ENDCHAR
STARTCHAR oacute
ENCODING 243
SWIDTH 1020 0
DWIDTH 51 0
BBX 1 1 25 0
BITMAP
00
ENDCHAR
STARTCHAR ocircumflex
ENCODING 244
SWIDTH 1020 0
DWIDTH 51 0
BBX 1 1 25 0
BITMAP
00
ENDCHAR
STARTCHAR otilde
ENCODING 245
SWIDTH 1020 0
DWIDTH 51 0
BBX 1 1 25 0
BITMAP
00
ENDCHAR
STARTCHAR odieresis
ENCODING 246
SWIDTH 1020 0
DWIDTH 51 0
BBX 1 1 25 0
BITMAP
00
ENDCHAR
STARTCHAR divide
ENCODING 247
SWIDTH 1020 0
DWIDTH 51 0
BBX 1 1 25 0
BITMAP
00
ENDCHAR
STARTCHAR oslash
ENCODING 248
SWIDTH 1020 0
DWIDTH 51 0
BBX 1 1 25 0
BITMAP
00
ENDCHAR
STARTCHAR ugrave
ENCODING 249
SWIDTH 1020 0
DWIDTH 51 0
BBX 1 1 25 0
BITMAP
00
ENDCHAR
STARTCHAR uacute
ENCODING 250
SWIDTH 1020 0
DWIDTH 51 0
BBX 1 1 25 0
BITMAP
00
ENDCHAR
STARTCHAR ucircumflex
ENCODING 251
SWIDTH 1020 0
DWIDTH 51 0
BBX 1 1 25 0
BITMAP
00
ENDCHAR
STARTCHAR udieresis
ENCODING 252
SWIDTH 1020 0
DWIDTH 51 0
BBX 1 1 25 0
BITMAP
00
ENDCHAR
STARTCHAR yacute
ENCODING 253
SWIDTH 1020 0
DWIDTH 51 0
BBX 1 1 25 0
BITMAP
00
ENDCHAR
STARTCHAR thorn
ENCODING 254
SWIDTH 1020 0
DWIDTH 51 0
BBX 1 1 25 0
BITMAP
00
ENDCHAR
STARTCHAR ydieresis
ENCODING 255
SWIDTH 1020 0
DWIDTH 51 0
BBX 1 1 25 0
BITMAP
00
ENDCHAR
ENDFONT
